<?xml version="1.0" encoding="UTF-8"?>
<svg version="1.1" xmlns="http://www.w3.org/2000/svg" width="381" height="461">
<path d="M0 0 C125.73 0 251.46 0 381 0 C381 152.13 381 304.26 381 461 C255.27 461 129.54 461 0 461 C0 308.87 0 156.74 0 0 Z " fill="#FEFEFE" transform="translate(0,0)"/>
<path d="M0 0 C1.22976562 0.01675781 2.45953125 0.03351562 3.7265625 0.05078125 C37.7822842 1.50084239 72.40383732 16.76754236 97.48535156 39.625 C99.02264479 41.02055698 100.582626 42.3865723 102.1484375 43.75 C117.69392723 57.42857244 129.48993748 74.52384518 138.17724609 93.23681641 C138.90527038 94.79699189 139.66335353 96.34306371 140.42578125 97.88671875 C151.91971468 121.69303907 153.40063497 147.00586015 153 173 C152.98324219 174.20011719 152.96648437 175.40023437 152.94921875 176.63671875 C151.47838082 208.11265048 137.36852703 238.6421404 118 263 C117.36553955 263.79905762 117.36553955 263.79905762 116.71826172 264.61425781 C101.62040867 283.47116815 83.36234936 296.89775405 62 308 C61.21012695 308.41975098 60.42025391 308.83950195 59.60644531 309.27197266 C53.68556903 312.34640802 47.74251148 314.65099189 41.375 316.625 C40.41932129 316.92422363 39.46364258 317.22344727 38.47900391 317.53173828 C30.38456102 320.002217 22.38453204 321.8276661 14 323 C12.61167969 323.19529297 12.61167969 323.19529297 11.1953125 323.39453125 C-4.72410765 325.12490301 -21.23750116 324.7037863 -37 322 C-38.40378906 321.83564453 -38.40378906 321.83564453 -39.8359375 321.66796875 C-56.10700388 319.59420539 -71.75052928 312.879306 -86 305 C-87.07765625 304.4121875 -88.1553125 303.824375 -89.265625 303.21875 C-99.34036804 297.53556162 -108.30077015 290.86908311 -116.7890625 283.0234375 C-118.54665377 281.41489991 -120.31875138 279.91074626 -122.1875 278.4375 C-125.86706556 275.24854318 -128.9008648 271.74751473 -132 268 C-132.82628906 267.02289063 -133.65257812 266.04578125 -134.50390625 265.0390625 C-142.22816647 255.70662748 -148.22305347 245.62376834 -154 235 C-154.60972656 233.89398438 -155.21945313 232.78796875 -155.84765625 231.6484375 C-165.3518203 213.6124024 -170.72249596 191.36452706 -171 171 C-171.01369629 170.16049805 -171.02739258 169.32099609 -171.04150391 168.45605469 C-171.24335401 154.47246343 -170.99327876 141.05568903 -167.8125 127.375 C-167.59182861 126.42351074 -167.37115723 125.47202148 -167.14379883 124.49169922 C-161.07588057 99.18078117 -149.26374827 75.56558137 -132 56 C-131.17371094 55.05253906 -130.34742188 54.10507813 -129.49609375 53.12890625 C-124.63782765 47.66242973 -119.69396979 42.58902111 -114 38 C-113.05640625 37.23042969 -112.1128125 36.46085937 -111.140625 35.66796875 C-103.20586001 29.31299274 -94.87778742 23.93911422 -86 19 C-85.38318359 18.65195312 -84.76636719 18.30390625 -84.13085938 17.9453125 C-68.37996162 9.1709904 -50.80061709 3.70690649 -33 1 C-32.14664063 0.86980469 -31.29328125 0.73960938 -30.4140625 0.60546875 C-20.36958946 -0.58275756 -10.09450795 -0.16468967 0 0 Z " fill="#414952" transform="translate(200,16)"/>
<path d="M0 0 C0 68.64 0 137.28 0 208 C-72.6 208 -145.2 208 -220 208 C-220 198.74207066 -219.89140737 190.87895149 -218.125 182 C-217.8005188 180.35608276 -217.8005188 180.35608276 -217.46948242 178.67895508 C-210.45461715 145.37064154 -196.1329861 115.27830476 -176 88 C-176.99 87.34 -177.98 86.68 -179 86 C-177.52853516 85.83564453 -177.52853516 85.83564453 -176.02734375 85.66796875 C-153.62699232 83.07975758 -132.7873956 78.03003369 -113 67 C-112.36610352 66.65066406 -111.73220703 66.30132812 -111.07910156 65.94140625 C-101.32900604 60.51198029 -92.50657095 54.21384586 -84 47 C-83.44038574 46.52691406 -82.88077148 46.05382812 -82.30419922 45.56640625 C-70.16540874 35.17078412 -56.26952405 20.61299732 -50.02734375 5.671875 C-49 4 -49 4 -47.0390625 3.4609375 C-46.24242187 3.43257813 -45.44578125 3.40421875 -44.625 3.375 C-40.77498786 3.1436688 -37.10481844 2.70817313 -33.3125 2 C-22.22572199 0.0929034 -11.23881369 0 0 0 Z " fill="#B8C9F7" transform="translate(381,253)"/>
<path d="M0 0 C1.22976562 0.01675781 2.45953125 0.03351562 3.7265625 0.05078125 C38.59460206 1.53543014 73.55791531 17.4297804 99 41 C99.79664063 41.68191406 100.59328125 42.36382812 101.4140625 43.06640625 C103 45 103 45 102.81982422 46.91943359 C101.80570576 49.49308384 100.61581007 50.49258063 98.46875 52.22265625 C93.88474138 56.05460095 89.69709955 60.18987981 85.5 64.4375 C84.77296875 65.16904297 84.0459375 65.90058594 83.296875 66.65429688 C81.52890501 68.43389824 79.76333622 70.21580918 78 72 C77.4225 71.67 76.845 71.34 76.25 71 C73.80116138 69.72924102 73.80116138 69.72924102 70 70 C67.39417379 72.05051788 67.39417379 72.05051788 64.796875 74.8125 C64.0728952 75.54496948 64.0728952 75.54496948 63.33428955 76.29223633 C61.7965476 77.85234929 60.27329997 79.4257953 58.75 81 C57.70925913 82.06080491 56.66760263 83.12071234 55.625 84.1796875 C53.07263095 86.77613265 50.53308035 89.38471784 48 92 C48.33 92.763125 48.66 93.52625 49 94.3125 C50 97 50 97 50 100 C48.6875 101.60546875 48.6875 101.60546875 47 103.1875 C46.443125 103.71730469 45.88625 104.24710937 45.3125 104.79296875 C44.879375 105.19128906 44.44625 105.58960937 44 106 C40.96719076 104.62145034 38.70371579 102.98130927 36.1875 100.8125 C19.16064808 87.44223431 -2.36612478 84.81073202 -23.35644531 87.27685547 C-41.90847042 90.24534791 -58.43684379 101.14994146 -69.57006836 116.05908203 C-82.79409914 134.45238511 -85.84333974 153.73966904 -84 176 C-81.86008078 188.37412638 -75.93350978 200.72704364 -67.5 210 C-66.675 210.99 -65.85 211.98 -65 213 C-65.38719226 217.25087668 -67.96427939 219.19779636 -71 222 C-71.5775 221.690625 -72.155 221.38125 -72.75 221.0625 C-73.4925 220.711875 -74.235 220.36125 -75 220 C-75.89187012 219.56699585 -75.89187012 219.56699585 -76.80175781 219.12524414 C-79.25151747 218.74370387 -79.25151747 218.74370387 -81.56542969 220.99780273 C-82.5304969 221.96366195 -83.48187934 222.94331757 -84.421875 223.93359375 C-84.92672424 224.44551773 -85.43157349 224.95744171 -85.95172119 225.48487854 C-87.56323701 227.12440783 -89.15652519 228.78044934 -90.75 230.4375 C-91.83868766 231.55126145 -92.92851831 232.66390686 -94.01953125 233.77539062 C-96.69312799 236.50414866 -99.35050219 239.24784521 -102 242 C-100.79618552 244.49361571 -99.54571278 246.68143083 -98 249 C-107 258 -116 267 -125 276 C-136.57334568 263.28116959 -145.7941471 250.09051187 -154 235 C-154.60972656 233.89398438 -155.21945313 232.78796875 -155.84765625 231.6484375 C-165.3518203 213.6124024 -170.72249596 191.36452706 -171 171 C-171.01369629 170.16049805 -171.02739258 169.32099609 -171.04150391 168.45605469 C-171.24335401 154.47246343 -170.99327876 141.05568903 -167.8125 127.375 C-167.59182861 126.42351074 -167.37115723 125.47202148 -167.14379883 124.49169922 C-161.07588057 99.18078117 -149.26374827 75.56558137 -132 56 C-131.17371094 55.05253906 -130.34742188 54.10507813 -129.49609375 53.12890625 C-124.63782765 47.66242973 -119.69396979 42.58902111 -114 38 C-113.05640625 37.23042969 -112.1128125 36.46085937 -111.140625 35.66796875 C-103.20586001 29.31299274 -94.87778742 23.93911422 -86 19 C-85.38318359 18.65195312 -84.76636719 18.30390625 -84.13085938 17.9453125 C-68.37996162 9.1709904 -50.80061709 3.70690649 -33 1 C-32.14664063 0.86980469 -31.29328125 0.73960938 -30.4140625 0.60546875 C-20.36958946 -0.58275756 -10.09450795 -0.16468967 0 0 Z " fill="#4B7AFD" transform="translate(200,16)"/>
<path d="M0 0 C16.84667087 6.88651442 28.85506722 33.44826087 36 49 C36.46792969 49.94875 36.93585938 50.8975 37.41796875 51.875 C48.92800042 75.67420395 50.40059399 101.00851904 50 127 C49.97486328 128.80017578 49.97486328 128.80017578 49.94921875 130.63671875 C48.1579671 168.96950401 28.37745583 201.74949044 4 230 C0.61270879 229.4132978 -1.05936087 228.32835557 -3.49926758 225.93652344 C-4.16287796 225.29205261 -4.82648834 224.64758179 -5.51020813 223.98358154 C-6.21453476 223.28259338 -6.91886139 222.58160522 -7.64453125 221.859375 C-8.7383033 220.78058075 -8.7383033 220.78058075 -9.85417175 219.67999268 C-11.39200384 218.15734256 -12.92579164 216.63059856 -14.45581055 215.10009766 C-16.80549715 212.75698327 -19.17810766 210.43889473 -21.55273438 208.12109375 C-23.04313322 206.63949464 -24.53211512 205.15646851 -26.01953125 203.671875 C-27.09120293 202.63253815 -27.09120293 202.63253815 -28.18452454 201.57220459 C-28.83237411 200.91512512 -29.48022369 200.25804565 -30.14770508 199.58105469 C-30.72410233 199.0089325 -31.30049957 198.4368103 -31.8943634 197.84735107 C-33 196 -33 196 -32.84233093 193.45977783 C-31.796498 190.40573273 -29.90306812 188.6415892 -27.7578125 186.2890625 C-18.13313987 173.75559992 -14.42095844 158.21222052 -16.42578125 142.70703125 C-19.22896154 127.21215123 -27.18764835 114.59544233 -39.8125 105.1875 C-45.18336409 101.61820135 -50.97654116 99.24586008 -57 97 C-55.60101283 99.97201102 -53.95669648 102.57016987 -52.0625 105.25 C-45.01928846 115.72892449 -43.52666283 127.71913592 -45.49609375 140.125 C-47.88656629 150.71330775 -52.60193254 158.17553096 -60 166 C-64.15182776 165.47987853 -66.07237065 163.29047184 -68.95214844 160.38842773 C-69.4306575 159.91035675 -69.90916656 159.43228577 -70.4021759 158.93972778 C-71.97845961 157.36135786 -73.54385729 155.77263658 -75.109375 154.18359375 C-76.20159428 153.08577794 -77.29447879 151.9886236 -78.38800049 150.8921051 C-81.26174873 148.00691268 -84.12637336 145.1128243 -86.98919678 142.21679688 C-89.91312669 139.26215704 -92.84558726 136.31601101 -95.77734375 133.36914062 C-101.52661709 127.58771064 -107.26628064 121.79685575 -113 116 C-112.07161507 114.57167184 -111.13836191 113.14650731 -110.203125 111.72265625 C-109.68395508 110.92867432 -109.16478516 110.13469238 -108.62988281 109.31665039 C-106.37192707 106.1072822 -103.93617139 103.60251555 -101 101 C-100.34 101 -99.68 101 -99 101 C-98.731875 100.360625 -98.46375 99.72125 -98.1875 99.0625 C-97 97 -97 97 -94 96 C-93.30016328 94.68377403 -92.63760522 93.34747237 -92 92 C-90.42773438 90.16894531 -90.42773438 90.16894531 -88.59375 88.328125 C-87.93246094 87.66425781 -87.27117187 87.00039062 -86.58984375 86.31640625 C-85.55537109 85.29353516 -85.55537109 85.29353516 -84.5 84.25 C-83.81035156 83.55261719 -83.12070313 82.85523438 -82.41015625 82.13671875 C-81.74886719 81.47800781 -81.08757812 80.81929688 -80.40625 80.140625 C-79.80103516 79.53766602 -79.19582031 78.93470703 -78.57226562 78.31347656 C-77 77 -77 77 -75 77 C-74.7642627 76.43829102 -74.52852539 75.87658203 -74.28564453 75.29785156 C-72.69599628 72.45664964 -70.74656724 70.52192715 -68.4296875 68.234375 C-67.53378906 67.34492188 -66.63789063 66.45546875 -65.71484375 65.5390625 C-64.77769531 64.61867188 -63.84054688 63.69828125 -62.875 62.75 C-61.92011363 61.80515144 -60.96568141 60.85984367 -60.01171875 59.9140625 C-57.67890913 57.60481662 -55.34155914 55.30036797 -53 53 C-53.53625 52.2575 -54.0725 51.515 -54.625 50.75 C-56 48 -56 48 -55.50048828 46.01269531 C-53.52925188 43.36855719 -51.33869336 41.11640952 -48.9921875 38.796875 C-48.50670441 38.3142218 -48.02122131 37.8315686 -47.52102661 37.33428955 C-45.97700134 35.80141438 -44.42615176 34.27565996 -42.875 32.75 C-41.82375991 31.70879639 -40.77297343 30.66713459 -39.72265625 29.625 C-37.15366996 27.07800536 -34.57851839 24.53734823 -32 22 C-31.4225 22.33 -30.845 22.66 -30.25 23 C-27.80116138 24.27075898 -27.80116138 24.27075898 -24 24 C-21.52442873 22.0464308 -21.52442873 22.0464308 -19.0859375 19.40625 C-18.40236679 18.70707458 -18.40236679 18.70707458 -17.70498657 17.99377441 C-16.25183891 16.50502459 -14.81276535 15.00359885 -13.375 13.5 C-11.9284138 11.9982189 -10.47902636 10.49943254 -9.02359009 9.00622559 C-7.70623576 7.65311696 -6.39853769 6.29062742 -5.09130859 4.92773438 C-3 3 -3 3 -1 3 C-0.67 2.01 -0.34 1.02 0 0 Z " fill="#343940" transform="translate(303,62)"/>
<path d="M0 0 C1.730093 1.66161967 3.09177363 3.47019537 4.48046875 5.421875 C-5.96875 15.87109375 -5.96875 15.87109375 -7.8215332 17.72363281 C-9.22926908 19.1315711 -10.6362209 20.54029327 -12.04296875 21.94921875 C-13.97690232 23.88010196 -15.91637891 25.80483114 -17.859375 27.7265625 C-19.05863368 28.91662643 -20.25785174 30.10673129 -21.45703125 31.296875 C-22.05193359 31.88339844 -22.64683594 32.46992188 -23.25976562 33.07421875 C-26.13202872 35.93078642 -28.88030803 38.80572172 -31.4609375 41.9296875 C-33.56267281 44.4365794 -35.76583441 46.56403948 -38.26733398 48.66967773 C-42.33925248 52.19286713 -45.97929987 55.982831 -49.61328125 59.94921875 C-56.10269288 66.93357974 -62.74449022 73.7496247 -69.48828125 80.48828125 C-69.95829559 80.95800732 -70.42830994 81.42773338 -70.91256714 81.91169357 C-73.78921094 84.7848693 -76.6697115 87.65415421 -79.55133057 90.52233887 C-82.04134781 93.00190125 -84.52833486 95.48449943 -87.015625 97.96679688 C-91.84740147 102.78802824 -96.68236267 107.60605371 -101.51953125 112.421875 C-110.42695943 108.22892777 -114.74978126 98.0384464 -118.51953125 89.421875 C-119.009375 88.37 -119.49921875 87.318125 -120.00390625 86.234375 C-123.39615782 77.84903405 -123.98007718 70.21590206 -124.01953125 61.234375 C-124.02581543 60.15397949 -124.03209961 59.07358398 -124.03857422 57.96044922 C-123.71936146 37.60831142 -115.02472048 19.6327179 -101.171875 4.98828125 C-73.89104893 -21.40862999 -29.81942749 -23.2004699 0 0 Z " fill="#FED300" transform="translate(238.51953125,117.578125)"/>
<path d="M0 0 C0 31.68 0 63.36 0 96 C-35.64 96 -71.28 96 -108 96 C-108 73.71921791 -95.6469665 52.2258269 -81 36 C-80.19175781 35.09765625 -79.38351562 34.1953125 -78.55078125 33.265625 C-57.60954576 11.1036 -30.15687331 0 0 0 Z " fill="#FEFEFE" transform="translate(381,365)"/>
<path d="M0 0 C15.77292067 4.68615759 28.2029863 12.91992666 36.60546875 27.3125 C43.83647498 41.24788456 46.17362068 55.70338066 42 71 C35.81254237 88.67280232 25.15692639 100.48642301 8.39453125 108.58984375 C-3.50161542 113.53174127 -19.27928188 114.28206758 -31.6875 110.4375 C-34.375 109.3203125 -34.375 109.3203125 -37 108 C-38.010625 107.50242187 -39.02125 107.00484375 -40.0625 106.4921875 C-53.27722249 99.38927416 -61.85681095 88.94199647 -67.43359375 75.1640625 C-68 73 -68 73 -67 70 C-66.59652344 70.36351562 -66.19304687 70.72703125 -65.77734375 71.1015625 C-54.37552924 80.54255541 -41.7297701 83.61419232 -27.24658203 82.30273438 C-14.00193825 80.51797473 -4.25590024 73.33387678 4.2109375 63.3828125 C12.35262282 52.53908315 14.41058881 39.8791662 12.6875 26.58984375 C10.87284652 17.4031605 7.39750825 9.89534074 1.390625 2.71484375 C0 1 0 1 0 0 Z " fill="#E6EAF2" transform="translate(244,158)"/>
<path d="M0 0 C1.730093 1.66161967 3.09177363 3.47019537 4.48046875 5.421875 C-1.18619792 11.08854167 -6.85286458 16.75520833 -12.51953125 22.421875 C-13.42703125 21.885625 -14.33453125 21.349375 -15.26953125 20.796875 C-30.19541043 12.28517201 -44.20774846 7.12124775 -61.51953125 11.2265625 C-70.12484893 14.01176577 -76.66911651 18.66300986 -83.51953125 24.421875 C-89.55360445 19.43720584 -95.03309813 13.9985785 -100.51953125 8.421875 C-101.17953125 7.761875 -101.83953125 7.101875 -102.51953125 6.421875 C-74.36372469 -20.37374767 -31.17575066 -24.25573278 0 0 Z " fill="#FDA201" transform="translate(238.51953125,117.578125)"/>
<path d="M0 0 C3.54822446 0.57881268 5.18422803 1.82692359 7.671875 4.37890625 C8.66767578 5.38920898 8.66767578 5.38920898 9.68359375 6.41992188 C10.36550781 7.12697266 11.04742187 7.83402344 11.75 8.5625 C12.44738281 9.27341797 13.14476562 9.98433594 13.86328125 10.71679688 C15.5824658 12.47130714 17.29425872 14.23243352 19 16 C17.79691934 19.34695898 16.56267701 21.68664468 14.1875 24.3125 C6.61188353 34.25200662 4.57755075 47.77719447 5.70898438 59.96582031 C7.05759302 69.39250422 11.34777558 77.4913265 17 85 C17.99 86.485 17.99 86.485 19 88 C13.39 93.61 7.78 99.22 2 105 C-6.88697141 100.5565143 -11.16177808 90.77307867 -15 82 C-15.48984375 80.948125 -15.9796875 79.89625 -16.484375 78.8125 C-19.87662657 70.42715905 -20.46054593 62.79402706 -20.5 53.8125 C-20.50628418 52.73210449 -20.51256836 51.65170898 -20.51904297 50.53857422 C-20.22154451 31.57088107 -12.56778639 14.09115444 0 0 Z " fill="#FBB913" transform="translate(135,125)"/>
<path d="M0 0 C0.96486328 0.67095703 0.96486328 0.67095703 1.94921875 1.35546875 C15.12150137 10.16830834 27.21134887 14.03887597 43 12 C49.60975175 10.64246222 55.72404217 8.19281001 61.125 4.125 C64 2 64 2 65.82714844 2.03295898 C69.04755254 3.46621973 71.22263063 5.85542437 73.640625 8.34765625 C74.16767029 8.87894638 74.69471558 9.41023651 75.23773193 9.95762634 C76.91567187 11.65232825 78.58286728 13.35717217 80.25 15.0625 C81.38732745 16.21487745 82.52534066 17.36657852 83.6640625 18.51757812 C86.45071992 21.33727184 89.22778792 24.16610588 92 27 C89.95852283 33.1244315 82.42078958 35.75066072 76.96484375 38.56640625 C64.75307508 43.77458463 49.02428218 44.28955521 36.3125 40.4375 C33.625 39.3203125 33.625 39.3203125 31 38 C29.989375 37.50242187 28.97875 37.00484375 27.9375 36.4921875 C14.38076436 29.20544209 4.53597923 17.78195584 0 3 C0 2.01 0 1.02 0 0 Z " fill="#FCFCFC" transform="translate(176,228)"/>
<path d="M0 0 C4.83298806 4.02748053 9.38110004 8.24379413 13.80859375 12.7109375 C14.72597069 13.63043686 14.72597069 13.63043686 15.66188049 14.56851196 C17.58947559 16.50164564 19.51353928 18.43824987 21.4375 20.375 C22.75432404 21.69684699 24.07137926 23.01846372 25.38867188 24.33984375 C28.59512373 27.55724299 31.79841629 30.77775681 35 34 C33.65427113 36.99943905 32.16462899 39.08076179 29.83544922 41.39160156 C29.19493622 42.0319635 28.55442322 42.67232544 27.89450073 43.33209229 C26.86004318 44.35106598 26.86004318 44.35106598 25.8046875 45.390625 C25.09724396 46.09523865 24.38980042 46.79985229 23.66091919 47.52581787 C21.40360138 49.7719539 19.13942367 52.01103009 16.875 54.25 C15.34199047 55.77297717 13.80943285 57.29640939 12.27734375 58.8203125 C8.52345427 62.55216815 4.76391086 66.27825351 1 70 C-6.05815588 66.73073982 -9.39220842 59.04103727 -12 52 C-16.26007853 38.96637683 -15.05671145 24.31660331 -9 12 C-6.39892144 7.67885336 -3.30720721 3.80436908 0 0 Z " fill="#FAD815" transform="translate(154,142)"/>
<path d="M0 0 C5.17578125 4.39453125 5.17578125 4.39453125 7 6 C7.54398438 6.41378906 8.08796875 6.82757813 8.6484375 7.25390625 C10.75068651 9.96981754 10.8203664 12.75706527 11.3125 16.125 C13.80702539 30.95978974 18.83980586 46.86002704 29.76953125 57.765625 C31 59 31 59 31 60.875 C29.58597216 63.87980917 27.41903456 65.76704502 25 68 C24.13375 67.5359375 24.13375 67.5359375 23.25 67.0625 C21.11628933 66.0549144 19.3385096 65.31180128 17 65 C16.34 65.66 15.68 66.32 15 67 C10.98292192 66.78178703 8.95748084 64.32595679 6.23144531 61.58789062 C5.54294243 60.9024543 5.54294243 60.9024543 4.8405304 60.20317078 C3.32903925 58.69468185 1.82854888 57.17574106 0.328125 55.65625 C-0.71932608 54.60574103 -1.76736917 53.55582204 -2.815979 52.50646973 C-5.00936731 50.30848234 -7.19775606 48.10567917 -9.38232422 45.89892578 C-12.18904445 43.06385381 -15.00443484 40.23759631 -17.82313156 37.41443634 C-19.98540115 35.24802063 -22.14482431 33.07878792 -24.30319977 30.90849304 C-25.34100378 29.86497521 -26.37928863 28.82193535 -27.41805267 27.77937317 C-28.86434842 26.32624022 -30.30678945 24.86927371 -31.74902344 23.41210938 C-32.57190857 22.58239624 -33.3947937 21.75268311 -34.24261475 20.89782715 C-36 19 -36 19 -36 18 C-18.675 17.505 -18.675 17.505 -1 17 C-0.67 11.39 -0.34 5.78 0 0 Z " fill="#2964EE" transform="translate(104,170)"/>
<path d="M0 0 C4.03919229 3.46216482 7.89973906 6.7728931 11.66601562 10.47314453 C12.50958618 11.30065216 13.35315674 12.12815979 14.22229004 12.98074341 C17.994963 16.70858939 21.76565968 20.43831584 25.52734375 24.17724609 C27.51660181 26.153061 29.5129242 28.12130955 31.515625 30.08349609 C34.40991429 32.91927563 37.28370846 35.77500275 40.15625 38.6328125 C41.05815063 39.51204376 41.96005127 40.39127502 42.88928223 41.29714966 C43.7076355 42.11835297 44.52598877 42.93955627 45.36914062 43.78564453 C46.45998962 44.86436325 46.45998962 44.86436325 47.57287598 45.96487427 C49 48 49 48 48.78942871 50.07589722 C48.3986615 51.02832809 48.3986615 51.02832809 48 52 C47.67 52.99 47.34 53.98 47 55 C48.37249963 57.67676547 48.37249963 57.67676547 50 60 C46.535 63.465 46.535 63.465 43 67 C39.74112931 65.37056465 37.85750433 64.11386468 35.1875 61.8125 C23.6222748 52.75653247 8.85688829 47.9420792 -5.69140625 46.6796875 C-9.72601638 45.85085378 -11.16721625 44.49285355 -13.9375 41.5 C-14.70964844 40.6853125 -15.48179687 39.870625 -16.27734375 39.03125 C-18 37 -18 37 -18 36 C-9.585 35.505 -9.585 35.505 -1 35 C-0.67 23.45 -0.34 11.9 0 0 Z " fill="#2964EE" transform="translate(201,55)"/>
<path d="M0 0 C3.90851199 1.58431453 6.52367356 4.26635095 9.421875 7.2265625 C9.92672424 7.73424164 10.43157349 8.24192078 10.95172119 8.76498413 C12.55592096 10.38033842 14.15300856 12.00252209 15.75 13.625 C16.83938107 14.72441698 17.9292199 15.82338059 19.01953125 16.921875 C21.68501885 19.6093602 24.34415143 22.30299021 27 25 C22.86297048 29.89866198 18.57913473 34.51244797 14 39 C8.00499003 34.03805145 2.53572963 28.6523376 -2.9375 23.125 C-3.81212891 22.24585937 -4.68675781 21.36671875 -5.58789062 20.4609375 C-7.72757048 18.3095654 -9.86486597 16.15588208 -12 14 C-10.21799313 10.14972009 -7.92324595 7.7200858 -4.875 4.75 C-3.96492188 3.85796875 -3.05484375 2.9659375 -2.1171875 2.046875 C-1.41851562 1.37140625 -0.71984375 0.6959375 0 0 Z " fill="#FBA205" transform="translate(109,84)"/>
<path d="M0 0 C11.88 0 23.76 0 36 0 C36 5.94 36 11.88 36 18 C24.12 18 12.24 18 0 18 C0 12.06 0 6.12 0 0 Z " fill="#FCB912" transform="translate(67,169)"/>
<path d="M0 0 C5.94 0 11.88 0 18 0 C18 11.88 18 23.76 18 36 C12.06 36 6.12 36 0 36 C0 24.12 0 12.24 0 0 Z " fill="#FEA200" transform="translate(182,54)"/>
<path d="M0 0 C5.6012737 2.33011678 9.53065204 7.12056817 13.75610352 11.33056641 C15.31281353 12.87531112 16.88721009 14.40042234 18.46289062 15.92578125 C19.45166381 16.90509733 20.43933375 17.88552883 21.42578125 18.8671875 C22.32723877 19.75519043 23.22869629 20.64319336 24.1574707 21.55810547 C26 24 26 24 26.09838867 26.07080078 C25 28 25 28 20 32 C11.75 23.75 3.5 15.5 -5 7 C-3.38262276 3.76524552 -2.52370777 2.29427979 0 0 Z " fill="#F7B718" transform="translate(102,91)"/>
<path d="M0 0 C1.77246094 0.94702148 1.77246094 0.94702148 3.77246094 2.94702148 C3.6433078 7.1841709 0.49751467 9.60368352 -2.35644531 12.36889648 C-2.8655394 12.87374573 -3.37463348 13.37859497 -3.89915466 13.89874268 C-5.52253027 15.50536127 -7.15603606 17.1012197 -8.79003906 18.69702148 C-9.89423957 19.78617133 -10.99776351 20.87600754 -12.10058594 21.96655273 C-14.80179197 24.63472908 -17.51212969 27.29330439 -20.22753906 29.94702148 C-22.849414 28.89827151 -24.02125267 28.29770835 -25.47753906 25.82202148 C-25.72503906 25.20327148 -25.97253906 24.58452148 -26.22753906 23.94702148 C-22.89879096 20.49483167 -19.55405988 17.05927621 -16.19335938 13.63818359 C-15.05207813 12.4717318 -13.91532118 11.30083563 -12.78320312 10.12548828 C-11.15651162 8.43825878 -9.51430184 6.76759977 -7.86816406 5.09936523 C-7.3638385 4.56923325 -6.85951294 4.03910126 -6.33990479 3.49290466 C-2.78359362 -0.0662034 -2.78359362 -0.0662034 0 0 Z " fill="#EFB31B" transform="translate(123.2275390625,234.052978515625)"/>
<path d="M0 0 C3.36748512 1.51947499 4.60840337 2.52100842 6 6 C5.29875 6.515625 4.5975 7.03125 3.875 7.5625 C1.647243 9.4512505 0.01224976 11.09280441 -1.8125 13.3125 C-4.61007649 16.67822184 -7.70187242 19.45909155 -11.03125 22.2890625 C-13.83405016 24.72482931 -16.40764974 27.34284098 -19 30 C-21.36733663 29.08361163 -22.70459238 28.53605676 -23.95092773 26.27441406 C-24 24 -24 24 -21.91040039 21.34277344 C-20.90222714 20.33539245 -19.88025302 19.34170574 -18.84765625 18.359375 C-18.31353622 17.83232971 -17.7794162 17.30528442 -17.22911072 16.76226807 C-15.51826532 15.07944065 -13.79087238 13.41480282 -12.0625 11.75 C-10.90056126 10.61313442 -9.73973875 9.47512678 -8.58007812 8.3359375 C-5.7328415 5.54386831 -2.87064017 2.76799323 0 0 Z " fill="#F6A008" transform="translate(271,84)"/>
<path d="M0 0 C3.32072528 1.57996613 5.68029835 3.07889421 8 6 C7.75436265 8.50149056 7.28689448 9.6984523 5.546875 11.52734375 C4.95390625 11.99269531 4.3609375 12.45804688 3.75 12.9375 C0.62463015 15.47001618 -2.19933161 18.11446287 -5 21 C-7.31 18.69 -9.62 16.38 -12 14 C-9.99006295 9.98012591 -8.06153611 7.85483005 -4.875 4.75 C-3.96492187 3.85796875 -3.05484375 2.9659375 -2.1171875 2.046875 C-1.41851562 1.37140625 -0.71984375 0.6959375 0 0 Z " fill="#2B65ED" transform="translate(135,110)"/>
</svg>
