<?xml version="1.0" encoding="UTF-8"?>
<svg version="1.1" xmlns="http://www.w3.org/2000/svg" width="1024" height="1365">
<path d="M0 0 C0 30.03 0 60.06 0 91 C-54.45 91 -108.9 91 -165 91 C-166.62563386 87.74873227 -166.1290896 84.17462025 -166.11352539 80.60302734 C-166.11367142 79.73466751 -166.11381744 78.86630768 -166.1139679 77.97163391 C-166.11326961 75.09304328 -166.1054811 72.21451686 -166.09765625 69.3359375 C-166.09579177 67.34339432 -166.09436801 65.35085069 -166.09336853 63.35830688 C-166.08954569 58.10740906 -166.07971737 52.85653878 -166.06866455 47.60565186 C-166.05844543 42.25012586 -166.05386983 36.89459543 -166.04882812 31.5390625 C-166.03809491 21.02602955 -166.02102127 10.51301706 -166 0 C-145.09460218 -0.15392658 -124.18917004 -0.30195917 -103.28368092 -0.4429636 C-93.57703794 -0.50857109 -83.87041559 -0.57611161 -74.16381836 -0.64819336 C-65.70415226 -0.71101043 -57.24446993 -0.77021022 -48.78474826 -0.82505554 C-44.30487244 -0.85422569 -39.82502577 -0.88521446 -35.34519386 -0.92053413 C-31.1288739 -0.95371911 -26.91254911 -0.98206828 -22.69617081 -1.00670624 C-21.14859079 -1.01660225 -19.60102092 -1.02826616 -18.0534687 -1.04183006 C-15.94012955 -1.06008835 -13.82684592 -1.07197758 -11.7134552 -1.08229065 C-9.9394646 -1.09473485 -9.9394646 -1.09473485 -8.12963581 -1.10743046 C-5 -1 -5 -1 0 0 Z M-100 19 C-100.02540029 25.726066 -100.04288805 32.45211957 -100.05493164 39.17822266 C-100.05995364 41.46533673 -100.06677247 43.75244761 -100.07543945 46.03955078 C-100.08759845 49.33106273 -100.09324973 52.62253215 -100.09765625 55.9140625 C-100.10281754 56.93303619 -100.10797882 57.95200989 -100.11329651 59.00186157 C-100.11367254 63.78394261 -100.0064403 68.29863529 -99 73 C-92.05964293 69.12405888 -85.51039732 65.02886107 -79.15625 60.25390625 C-76.64890631 58.46338978 -74.13589741 56.79224634 -71.53125 55.15234375 C-70.75289795 54.6615332 -69.9745459 54.17072266 -69.17260742 53.66503906 C-67.61591198 52.69047396 -66.05364239 51.72474893 -64.4855957 50.76855469 C-63.77491943 50.32286133 -63.06424316 49.87716797 -62.33203125 49.41796875 C-61.68983643 49.02375732 -61.0476416 48.6295459 -60.38598633 48.22338867 C-59.92861084 47.81967041 -59.47123535 47.41595215 -59 47 C-59 46.01 -59 45.02 -59 44 C-61.27137196 42.0975472 -61.27137196 42.0975472 -64.265625 40.26953125 C-65.08858063 39.73835945 -65.08858063 39.73835945 -65.92816162 39.19645691 C-67.69591118 38.05845213 -69.47252044 36.93523282 -71.25 35.8125 C-72.97545345 34.70885999 -74.69898772 33.602266 -76.42248535 32.49557495 C-77.5680697 31.76144462 -78.71512876 31.02961045 -79.86364746 30.30007935 C-82.74999699 28.46372573 -85.60925579 26.59902061 -88.43164062 24.66552734 C-89.50091797 23.93414551 -90.57019531 23.20276367 -91.671875 22.44921875 C-92.62674805 21.78623779 -93.58162109 21.12325684 -94.56542969 20.44018555 C-96.95889937 18.74542892 -96.95889937 18.74542892 -100 19 Z " fill="#22C3B7" transform="translate(311,692)"/>
<path d="M0 0 C54.78 0 109.56 0 166 0 C166.33 10.89 166.66 21.78 167 33 C162.4308734 33.7615211 158.72447848 34.11429041 154.16629028 34.08229065 C153.5037118 34.07906152 152.84113333 34.07583239 152.15847671 34.07250541 C149.95210732 34.06050129 147.74586671 34.04111432 145.53955078 34.02172852 C143.95248183 34.01157819 142.3654099 34.00188534 140.77833557 33.99261475 C136.4792 33.96620926 132.18013422 33.93341454 127.88105249 33.89946485 C123.38474608 33.86504687 118.88840238 33.83651577 114.39205933 33.80735779 C105.88176972 33.75127681 97.3715268 33.68990852 88.86128795 33.62663645 C79.17091314 33.55484803 69.48050101 33.48896028 59.79008126 33.42356598 C39.86000398 33.28893885 19.92999649 33.14612989 0 33 C0 22.11 0 11.22 0 0 Z M13 9 C13 13.62 13 18.24 13 23 C18.28 23 23.56 23 29 23 C29 18.38 29 13.76 29 9 C23.72 9 18.44 9 13 9 Z M48 9 C46.95023036 12.14930893 46.89868405 14.38814456 46.9375 17.6875 C46.958125 19.440625 46.97875 21.19375 47 23 C52.28 23 57.56 23 63 23 C63.99293628 20.02119115 64.13406411 17.98398802 64.125 14.875 C64.12757813 13.98554687 64.13015625 13.09609375 64.1328125 12.1796875 C64.24301985 10.02208912 64.24301985 10.02208912 63 9 C60.46950598 8.92686433 57.96695163 8.90752473 55.4375 8.9375 C54.72658203 8.94201172 54.01566406 8.94652344 53.28320312 8.95117188 C51.52209987 8.96299136 49.76103964 8.98092737 48 9 Z M83 9 C83 13.62 83 18.24 83 23 C88.28 23 93.56 23 99 23 C99 18.38 99 13.76 99 9 C93.72 9 88.44 9 83 9 Z M119 9 C119 13.62 119 18.24 119 23 C124.28 23 129.56 23 135 23 C135 18.38 135 13.76 135 9 C129.72 9 124.44 9 119 9 Z M153 9 C153.33 13.62 153.66 18.24 154 23 C155.32 23 156.64 23 158 23 C158 18.38 158 13.76 158 9 C156.35 9 154.7 9 153 9 Z " fill="#2BC4AC" transform="translate(145,652)"/>
<path d="M0 0 C0.90645264 0.00249756 1.81290527 0.00499512 2.74682617 0.00756836 C3.84744385 0.01667236 4.94806152 0.02577637 6.08203125 0.03515625 C8.01082146 0.04666467 9.93961398 0.05778843 11.8684082 0.06860352 C13.54378255 0.07828776 15.2191569 0.08797201 16.89453125 0.09765625 C17.83249553 27.34401343 18.02366879 54.56160195 17.9631958 81.8223877 C17.95272497 87.06713436 17.94834886 92.31188639 17.94335938 97.55664062 C17.93282662 107.73699251 17.91590069 117.91732172 17.89453125 128.09765625 C6.82204282 131.78848573 -5.43404115 129.09765625 -17.10546875 129.09765625 C-17.10546875 86.85765625 -17.10546875 44.61765625 -17.10546875 1.09765625 C-4.73046875 -0.02734375 -4.73046875 -0.02734375 0 0 Z M-6.10546875 9.09765625 C-6.10546875 13.38765625 -6.10546875 17.67765625 -6.10546875 22.09765625 C-1.48546875 22.09765625 3.13453125 22.09765625 7.89453125 22.09765625 C7.89453125 17.80765625 7.89453125 13.51765625 7.89453125 9.09765625 C3.27453125 9.09765625 -1.34546875 9.09765625 -6.10546875 9.09765625 Z " fill="#1BBEC8" transform="translate(336.10546875,690.90234375)"/>
<path d="M0 0 C0.33 0.66 0.66 1.32 1 2 C54.46 2 107.92 2 163 2 C163.33 1.34 163.66 0.68 164 0 C165.46098845 2.9219769 165.11134901 5.49893475 165.09765625 8.7578125 C165.09553383 9.75238968 165.09553383 9.75238968 165.09336853 10.76705933 C165.08776754 12.88641863 165.075215 15.00567259 165.0625 17.125 C165.05748512 18.56119639 165.05292219 19.99739444 165.04882812 21.43359375 C165.03779782 24.95576345 165.02053259 28.47787145 165 32 C156.88496355 33.1295682 148.83282632 33.1346449 140.65795898 33.11352539 C139.11970522 33.1132429 137.58145132 33.11340246 136.04319763 33.1139679 C131.89095848 33.11425345 127.73874854 33.10839593 123.58651614 33.10139394 C119.2383481 33.09512002 114.89017931 33.09455341 110.54200745 33.09336853 C102.31871315 33.09026709 94.09543223 33.08206976 85.87214381 33.07201904 C76.50573062 33.06082097 67.13931677 33.05533816 57.77289855 33.05032361 C38.51525813 33.03988611 19.25763014 33.02230974 0 33 C-0.16750929 28.62196815 -0.32807935 24.24375401 -0.48217773 19.86523438 C-0.53560003 18.37525558 -0.59092962 16.88534391 -0.64819336 15.39550781 C-0.73009836 13.25600663 -0.80517709 11.11635907 -0.87890625 8.9765625 C-0.9260376 7.68830566 -0.97316895 6.40004883 -1.02172852 5.07275391 C-1 2 -1 2 0 0 Z M84 10 C84 10.99 84 11.98 84 13 C83.34 13 82.68 13 82 13 C82 16.96 82 20.92 82 25 C87.28 25 92.56 25 98 25 C98 20.05 98 15.1 98 10 C93.38 10 88.76 10 84 10 Z M152 10 C152.33 14.95 152.66 19.9 153 25 C154.32 25 155.64 25 157 25 C157.19456705 23.04235617 157.38044247 21.08384679 157.5625 19.125 C157.66691406 18.03445313 157.77132812 16.94390625 157.87890625 15.8203125 C158.22639404 13.04847977 158.22639404 13.04847977 157 11 C155.35 10.67 153.7 10.34 152 10 Z M13 11 C11.61773984 13.76452033 11.90474613 16.0461363 11.9375 19.125 C11.958125 21.06375 11.97875 23.0025 12 25 C17.28 25 22.56 25 28 25 C28 20.38 28 15.76 28 11 C22.66901216 10.00043978 18.35008578 9.98532856 13 11 Z M47 11 C46.21153068 15.8293746 46 20.03237007 46 25 C51.28 25 56.56 25 62 25 C62 20.38 62 15.76 62 11 C56.86702719 9.28900906 52.28496529 10.17098584 47 11 Z M122.6875 10.5 C121.140625 10.665 119.59375 10.83 118 11 C118 15.62 118 20.24 118 25 C123.28 25 128.56 25 134 25 C134.020625 22.710625 134.04125 20.42125 134.0625 18.0625 C134.07410156 16.77472656 134.08570313 15.48695313 134.09765625 14.16015625 C134.36532549 11.13701597 134.36532549 11.13701597 133 10 C129.52470508 9.85392806 126.14177415 10.13154409 122.6875 10.5 Z " fill="#1EBDBA" transform="translate(146,787)"/>
<path d="M0 0 C1.39456452 0.00667256 2.78911118 0.01863093 4.18359375 0.03515625 C4.89451172 0.03966797 5.60542969 0.04417969 6.33789062 0.04882812 C8.09899388 0.06064761 9.86005411 0.07858362 11.62109375 0.09765625 C12.97334456 5.21611875 14.3241822 10.33495158 15.67382812 15.45410156 C16.13114188 17.18792277 16.58881186 18.92165006 17.046875 20.65527344 C19.98678268 31.78308189 22.8626477 42.9234137 25.62109375 54.09765625 C26.62262813 50.68143765 27.62198408 47.2645847 28.62109375 43.84765625 C29.0855188 42.26283447 29.0855188 42.26283447 29.55932617 40.64599609 C31.33959943 34.55322936 33.08906208 28.45322341 34.796875 22.33984375 C35.15330078 21.07043945 35.50972656 19.80103516 35.87695312 18.49316406 C36.5751154 16.00184749 37.26792588 13.50902423 37.95507812 11.01464844 C38.27412109 9.87930664 38.59316406 8.74396484 38.921875 7.57421875 C39.34206909 6.05948975 39.34206909 6.05948975 39.77075195 4.51416016 C40.62109375 2.09765625 40.62109375 2.09765625 42.62109375 0.09765625 C45.44140625 -0.09765625 45.44140625 -0.09765625 48.74609375 -0.02734375 C49.84179688 -0.00929688 50.9375 0.00875 52.06640625 0.02734375 C53.33097656 0.06214844 53.33097656 0.06214844 54.62109375 0.09765625 C57.32663383 5.93779324 59.07603523 11.85806248 60.7578125 18.0625 C61.18426811 19.61246422 61.18426811 19.61246422 61.61933899 21.19374084 C62.52043139 24.47295163 63.41460846 27.75400161 64.30859375 31.03515625 C64.92076728 33.2677034 65.53339268 35.5001267 66.14648438 37.73242188 C67.6432545 43.18607721 69.13436151 48.64125645 70.62109375 54.09765625 C71.35559852 51.30862787 72.08997191 48.51956504 72.82421875 45.73046875 C73.0499054 44.87325226 73.27559204 44.01603577 73.50811768 43.13284302 C74.82827133 38.11659253 76.14479774 33.09941732 77.45666504 28.08099365 C78.23187816 25.11773627 79.00997339 22.15523994 79.78857422 19.19287109 C80.18529268 17.68081842 80.58075069 16.16843461 80.97509766 14.65576172 C81.55703581 12.42460613 82.14328877 10.19462468 82.73046875 7.96484375 C82.90648621 7.28590057 83.08250366 6.6069574 83.26385498 5.90744019 C84.50717748 1.21157252 84.50717748 1.21157252 85.62109375 0.09765625 C88.15158777 0.02452058 90.65414212 0.00518098 93.18359375 0.03515625 C94.2499707 0.04192383 94.2499707 0.04192383 95.33789062 0.04882812 C97.09899388 0.06064761 98.86005411 0.07858362 100.62109375 0.09765625 C99.13661063 7.33829843 97.09238612 14.30168331 94.87109375 21.34765625 C91.54932055 32.01209849 88.39072354 42.70919916 85.36523438 53.4609375 C84.00491412 58.28096991 82.62392032 63.09510512 81.24609375 67.91015625 C80.73819909 69.68747652 80.23037856 71.46481798 79.72265625 73.2421875 C79.35914063 74.51449219 78.995625 75.78679687 78.62109375 77.09765625 C73.34109375 77.09765625 68.06109375 77.09765625 62.62109375 77.09765625 C57.83332057 60.12943883 53.17051184 43.13132959 48.62109375 26.09765625 C46.31489859 32.00221548 44.44076358 37.92772957 42.73828125 44.03125 C42.47854523 44.94979263 42.2188092 45.86833527 41.95120239 46.81471252 C41.12960207 49.72062757 40.31232377 52.62772853 39.49609375 55.53515625 C38.41390055 59.38908919 37.32741979 63.24177488 36.23828125 67.09375 C35.99036835 67.98219101 35.74245544 68.87063202 35.48703003 69.78599548 C35.25653961 70.60097 35.02604919 71.41594452 34.78857422 72.25561523 C34.58666473 72.97539047 34.38475525 73.69516571 34.17672729 74.43675232 C33.62109375 76.09765625 33.62109375 76.09765625 32.62109375 77.09765625 C30.09059973 77.17079192 27.58804538 77.19013152 25.05859375 77.16015625 C24.34767578 77.15564453 23.63675781 77.15113281 22.90429688 77.14648438 C21.14319362 77.13466489 19.38213339 77.11672888 17.62109375 77.09765625 C17.44871689 76.49949097 17.27634003 75.90132568 17.09873962 75.28503418 C15.2652606 68.92296317 13.43123452 62.56105002 11.59692383 56.19921875 C10.91710276 53.84118434 10.2374103 51.48311284 9.55786133 49.125 C4.94181275 33.10720892 0.29963565 17.09731053 -4.37890625 1.09765625 C-3.37890625 0.09765625 -3.37890625 0.09765625 0 0 Z " fill="#179AFA" transform="translate(598.37890625,705.90234375)"/>
<path d="M0 0 C1.6102677 0.00081715 1.6102677 0.00081715 3.25306606 0.00165081 C4.48283672 -0.00254368 5.71260738 -0.00673817 6.97964382 -0.01105976 C8.34979231 -0.0055759 9.71994001 0.00010709 11.09008694 0.00596905 C12.52716566 0.00489659 13.96424395 0.00295846 15.40132046 0.00021648 C19.31027792 -0.00464047 23.21912164 0.00303404 27.12806535 0.01316953 C31.21155025 0.02193477 35.29503143 0.02019289 39.37852383 0.01980877 C46.23584815 0.02074601 53.09312829 0.02943863 59.9504385 0.04307842 C67.88936 0.05881084 75.8282331 0.06407635 83.76716906 0.06334287 C91.39178235 0.06273346 99.01637981 0.06783052 106.64098835 0.07613468 C109.89177925 0.07967391 113.14256454 0.08149884 116.39335728 0.08202839 C120.21739963 0.08302969 124.04140102 0.08910877 127.86542988 0.09919453 C129.27277151 0.10212617 130.68011786 0.10334356 132.08746243 0.10276699 C134.00065958 0.10227961 135.91385501 0.10852581 137.82704067 0.1151762 C139.43674284 0.11768997 139.43674284 0.11768997 141.07896423 0.12025452 C143.47656155 0.24888897 143.47656155 0.24888897 144.47656155 1.24888897 C144.5644713 3.54040314 144.58350193 5.83461421 144.5742178 8.12779522 C144.57209538 9.15778889 144.57209538 9.15778889 144.56993008 10.20859051 C144.56431634 12.40956698 144.55176162 14.61044306 144.53906155 16.81138897 C144.53404831 18.3003198 144.5294851 19.78925221 144.52538967 21.27818584 C144.51434248 24.93511972 144.49706868 28.59199455 144.47656155 32.24888897 C141.78332707 33.59550621 139.71003592 33.37173071 136.6933279 33.36914349 C135.46211208 33.37051815 134.23089626 33.37189281 132.96237087 33.37330914 C131.59063601 33.36976977 130.2189014 33.36613495 128.84716702 33.36241436 C127.40846668 33.36213241 125.96976619 33.36229038 124.53106594 33.36285686 C120.6180735 33.36314453 116.70511152 33.35725275 112.79212618 33.35028291 C108.70550439 33.34404428 104.61888195 33.34344517 100.53225613 33.3422575 C92.79038552 33.33914569 85.04852899 33.33093432 77.30666459 33.32090801 C68.49421223 33.30974222 59.68175922 33.30423524 50.86930156 33.29921257 C32.73838023 33.28875159 14.60747202 33.27115505 -3.52343845 33.24888897 C-3.71562775 28.87107513 -3.89435985 24.49298338 -4.06054783 20.11412334 C-4.119007 18.62406409 -4.18116474 17.13414521 -4.24707127 15.64439678 C-4.34107901 13.50500833 -4.42184528 11.36547029 -4.50000095 9.22545147 C-4.55236912 7.93719463 -4.60473728 6.6489378 -4.65869236 5.32164288 C-4.48919785 1.47099678 -3.90886946 0.38553526 0 0 Z M12.47656155 10.24888897 C12.47656155 14.53888897 12.47656155 18.82888897 12.47656155 23.24888897 C17.75656155 23.24888897 23.03656155 23.24888897 28.47656155 23.24888897 C28.47656155 18.95888897 28.47656155 14.66888897 28.47656155 10.24888897 C26.18547105 10.05447528 23.89365817 9.86855761 21.60156155 9.68638897 C20.32538967 9.58197491 19.0492178 9.47756084 17.73437405 9.36998272 C14.59012212 8.99205529 14.59012212 8.99205529 12.47656155 10.24888897 Z M118.47656155 9.24888897 C118.47656155 13.86888897 118.47656155 18.48888897 118.47656155 23.24888897 C123.75656155 23.24888897 129.03656155 23.24888897 134.47656155 23.24888897 C134.49718655 21.86701397 134.51781155 20.48513897 134.53906155 19.06138897 C134.55066311 18.28408428 134.56226467 17.50677959 134.5742178 16.70592022 C134.52318489 13.80159278 134.52318489 13.80159278 133.47656155 9.24888897 C128.52656155 9.24888897 123.57656155 9.24888897 118.47656155 9.24888897 Z M47.47656155 10.24888897 C47.47656155 14.53888897 47.47656155 18.82888897 47.47656155 23.24888897 C50.12246169 23.27573576 52.7680925 23.29565254 55.41406155 23.31138897 C56.16880764 23.31976788 56.92355373 23.32814678 57.70117092 23.33677959 C59.62650468 23.34541338 61.55191736 23.3011323 63.47656155 23.24888897 C64.78918726 22.16336531 64.78918726 22.16336531 64.5742178 19.52623272 C64.56261623 18.42408428 64.55101467 17.32193584 64.53906155 16.18638897 C64.53003811 15.08166241 64.52101467 13.97693584 64.5117178 12.83873272 C64.50011623 11.98408428 64.48851467 11.12943584 64.47656155 10.24888897 C58.56508715 9.47575852 53.34510235 9.1006962 47.47656155 10.24888897 Z M82.47656155 10.24888897 C82.47656155 14.53888897 82.47656155 18.82888897 82.47656155 23.24888897 C88.08656155 23.24888897 93.69656155 23.24888897 99.47656155 23.24888897 C99.47656155 18.95888897 99.47656155 14.66888897 99.47656155 10.24888897 C98.48656155 10.24888897 97.49656155 10.24888897 96.47656155 10.24888897 C93.96470565 9.97631696 91.4571628 9.67638324 88.9492178 9.36998272 C86.19048383 9.11520469 86.19048383 9.11520469 82.47656155 10.24888897 Z " fill="#1CBAC1" transform="translate(209.52343845367432,825.7511110305786)"/>
<path d="M0 0 C5.64761135 3.9148215 10.5516129 9.08452619 12.75 15.6796875 C12.14671875 15.94523438 11.5434375 16.21078125 10.921875 16.484375 C10.12265625 16.83757813 9.3234375 17.19078125 8.5 17.5546875 C7.71109375 17.90273438 6.9221875 18.25078125 6.109375 18.609375 C3.96131392 19.58382655 1.85170798 20.60955179 -0.25 21.6796875 C-0.63671875 21.13699219 -1.0234375 20.59429688 -1.421875 20.03515625 C-2.20304687 18.96201172 -2.20304687 18.96201172 -3 17.8671875 C-3.51046875 17.15949219 -4.0209375 16.45179688 -4.546875 15.72265625 C-7.13241604 12.62119303 -9.41778668 10.95709194 -13.25 9.6796875 C-20.34021347 9.14066542 -25.94351745 9.32517551 -32.25 12.6796875 C-33.24 13.0096875 -34.23 13.3396875 -35.25 13.6796875 C-36.36311515 15.53562128 -36.36311515 15.53562128 -37.25 17.6796875 C-37.59160156 18.25847656 -37.93320312 18.83726562 -38.28515625 19.43359375 C-42.54229281 26.92809652 -43.27269496 35.23776223 -41.0390625 43.546875 C-38.67538359 49.93582889 -35.41927855 54.5345651 -29.25 57.6796875 C-23.10957463 59.82883638 -17.62203779 60.20343567 -11.25 58.6796875 C-8.99908271 57.53570278 -7.25974325 56.23723852 -5.25 54.6796875 C-4.59 54.6796875 -3.93 54.6796875 -3.25 54.6796875 C-3.25 54.0196875 -3.25 53.3596875 -3.25 52.6796875 C-2.59 52.6796875 -1.93 52.6796875 -1.25 52.6796875 C-0.92 51.6896875 -0.59 50.6996875 -0.25 49.6796875 C4.13889325 50.34467133 7.7311485 51.86726427 11.75 53.6796875 C10.09712235 60.45648587 6.27924503 64.61030521 1 68.9296875 C-9.5280495 74.59863723 -20.50508731 75.22899584 -32 72.1171875 C-42.75942905 68.40524937 -49.14762307 61.72356384 -54.24609375 51.7265625 C-58.50561831 42.35153236 -58.93102112 30.45385122 -55.5625 20.7421875 C-54.83535146 19.03540829 -54.06675825 17.34544446 -53.25 15.6796875 C-52.899375 14.96296875 -52.54875 14.24625 -52.1875 13.5078125 C-46.94903135 4.12222284 -38.49077175 -1.78995105 -28.3671875 -4.8984375 C-18.27050439 -6.9103227 -8.80492488 -5.16677884 0 0 Z " fill="#189BF7" transform="translate(439.25,710.3203125)"/>
<path d="M0 0 C0 -1.32 0 -2.64 0 -4 C4.62 -4 9.24 -4 14 -4 C14.80834098 3.05410367 15.13602506 9.9427422 15.09765625 17.0390625 C15.0962413 18.04593109 15.09482635 19.05279968 15.09336853 20.09017944 C15.08782431 23.26848473 15.07528259 26.44671644 15.0625 29.625 C15.05747778 31.79557189 15.05291614 33.9661449 15.04882812 36.13671875 C15.03787323 41.42450376 15.02119176 46.71224662 15 52 C12.64729407 53.17635297 11.179248 53.13359359 8.5625 53.125 C7.38880859 53.12886719 7.38880859 53.12886719 6.19140625 53.1328125 C4 53 4 53 1 52 C0.67 50.35 0.34 48.7 0 47 C-0.721875 47.61875 -1.44375 48.2375 -2.1875 48.875 C-8.16930092 53.39458292 -13.71935083 53.64512081 -21 53 C-27.76828174 51.59925995 -33.17979789 47.84812624 -37.25390625 42.2890625 C-41.94517494 34.08367004 -42.99201216 23.74973485 -40.87890625 14.6328125 C-38.22379433 6.67927724 -34.26672927 1.46693935 -27.1484375 -2.94140625 C-17.76364129 -7.56555129 -8.52327589 -5.17682701 0 0 Z M-23 10 C-27.05028321 15.22273362 -28.24790533 20.40984998 -28 27 C-27.18440471 31.50145864 -25.56511223 34.82654137 -22.1875 37.9375 C-17.57955526 40.9191113 -14.81245926 41.31797531 -9.4375 40.375 C-4.7759497 38.51037988 -2.20766972 36.07029095 0.3125 31.75 C2.02994487 24.88022054 1.39372955 19.18143597 -2 13 C-5.17723588 9.08140908 -8.37816368 7.34497846 -13.375 6.6875 C-17.11790753 7.13308423 -19.70821003 8.14462747 -23 10 Z " fill="#179AFB" transform="translate(737,731)"/>
<path d="M0 0 C4.62 0 9.24 0 14 0 C14.33 8.25 14.66 16.5 15 25 C16.98 23.68 18.96 22.36 21 21 C26.57675586 19.14108138 33.31746429 19.04398442 38.875 21.125 C44.10473606 24.26284164 47.05511512 28.17534613 49 34 C50.32771796 43.70406783 50.12719387 53.60124882 50.0625 63.375 C50.05746427 64.70833161 50.0529051 66.04166511 50.04882812 67.375 C50.03720366 70.58335356 50.0192756 73.79168329 50 77 C45.38 77.33 40.76 77.66 36 78 C35.98541748 76.87505127 35.97083496 75.75010254 35.95581055 74.59106445 C35.89772246 70.40682613 35.82049036 66.22312003 35.73754883 62.03930664 C35.70434886 60.23047542 35.67630159 58.42154182 35.65356445 56.61254883 C35.61992742 54.00818367 35.56760805 51.4047524 35.51171875 48.80078125 C35.50532883 47.99538406 35.4989389 47.18998688 35.49235535 46.36018372 C35.37256107 41.75817589 34.91478675 38.77135868 32 35 C28.94667811 32.51210809 25.92367224 32.8815954 22.09765625 33.125 C18.772494 34.5120323 16.79016804 36.96428224 15 40 C14.29633029 42.90155553 14.27793168 45.70350356 14.29296875 48.6796875 C14.27028679 49.89883347 14.27028679 49.89883347 14.24714661 51.14260864 C14.20440376 53.7203576 14.19544511 56.29693259 14.1875 58.875 C14.16434509 60.63023925 14.13897768 62.3854508 14.11132812 64.140625 C14.04860892 68.42718649 14.01616891 72.71302042 14 77 C11.18918527 78.40540737 9.05228282 77.93623713 5.9375 77.6875 C4.85339844 77.60886719 3.76929688 77.53023437 2.65234375 77.44921875 C1.33943359 77.22685547 1.33943359 77.22685547 0 77 C-1.47186977 74.05626045 -1.08181615 71.10984836 -1.02172852 67.88818359 C-1.01212097 67.15637375 -1.00251343 66.4245639 -0.99261475 65.670578 C-0.95957634 63.24643477 -0.91926258 60.82246905 -0.87890625 58.3984375 C-0.85460986 56.71978383 -0.83076606 55.04112356 -0.80735779 53.36245728 C-0.74446899 48.94006841 -0.67541596 44.51779624 -0.60510254 40.09552002 C-0.53446236 35.58456749 -0.46961958 31.07353211 -0.40429688 26.5625 C-0.27522271 17.70823983 -0.13910444 8.85410827 0 0 Z " fill="#1899F8" transform="translate(858,706)"/>
<path d="M0 0 C5.40603706 4.69203217 8.79906861 9.90458884 10 17 C10.25971089 21.01816845 10.33892144 24.98508449 10 29 C7.34520974 31.65479026 0.55135232 30.83708939 -3 31 C-7.590975 30.97970333 -12.1650045 30.78811912 -16.75 30.5625 C-17.9359375 30.51029297 -19.121875 30.45808594 -20.34375 30.40429688 C-23.22954543 30.27629788 -26.11483734 30.14143583 -29 30 C-27.34825079 35.50649137 -27.34825079 35.50649137 -23 39 C-17.87210557 40.70929814 -13.58755111 40.61738099 -8.625 38.6875 C-5.78301625 37.10779753 -5.78301625 37.10779753 -4 34 C-2.58194169 34.28482368 -1.16559621 34.57818144 0.25 34.875 C1.03890625 35.03742187 1.8278125 35.19984375 2.640625 35.3671875 C4.96831144 35.99150075 6.89031952 36.84838542 9 38 C4.07144832 45.06939132 -0.68660956 50.22886985 -9 53 C-19.00582554 53.72064117 -27.32970887 53.2398208 -35.3125 46.8125 C-42.22185511 40.21907961 -44.3904791 32.41100272 -45 23 C-44.62783656 14.61391721 -41.06503324 6.99082371 -35.07421875 1.109375 C-24.71736174 -7.17611061 -10.81108618 -7.70617215 0 0 Z M-27 11 C-28.97296178 13.47753497 -28.97296178 13.47753497 -30 16 C-29.67 16.66 -29.34 17.32 -29 18 C-20.75 18 -12.5 18 -4 18 C-5.90733892 11.98353773 -5.90733892 11.98353773 -10 8 C-16.78107677 5.73964108 -21.57516068 6.332115 -27 11 Z " fill="#1799FA" transform="translate(587,731)"/>
<path d="M0 0 C4.53514758 6.27379538 5.12481989 13.45392101 4.984375 20.96875 C4.98013016 21.84385727 4.97588531 22.71896454 4.97151184 23.62059021 C4.95488606 26.38150447 4.91726591 29.1416548 4.87890625 31.90234375 C4.86383853 33.78840082 4.85015381 35.67446948 4.83789062 37.56054688 C4.80503562 42.15393458 4.7533676 46.74676022 4.69140625 51.33984375 C0.07140625 51.33984375 -4.54859375 51.33984375 -9.30859375 51.33984375 C-9.63859375 38.46984375 -9.96859375 25.59984375 -10.30859375 12.33984375 C-10.96859375 12.00984375 -11.62859375 11.67984375 -12.30859375 11.33984375 C-12.75460937 10.83453125 -13.200625 10.32921875 -13.66015625 9.80859375 C-16.28935259 7.46599227 -18.69164909 7.80107067 -22.08203125 7.93359375 C-24.58589342 8.23846152 -24.58589342 8.23846152 -27.30859375 10.33984375 C-32.3848286 17.95419602 -30.37635911 29.5484047 -30.28808594 38.3137207 C-30.27012799 40.26901061 -30.25801048 42.22435145 -30.24609375 44.1796875 C-30.23449219 45.33847412 -30.22289062 46.49726074 -30.2109375 47.69116211 C-30.30859375 50.33984375 -30.30859375 50.33984375 -31.30859375 51.33984375 C-35.92859375 51.33984375 -40.54859375 51.33984375 -45.30859375 51.33984375 C-45.30859375 32.85984375 -45.30859375 14.37984375 -45.30859375 -4.66015625 C-38.87359375 -5.15515625 -38.87359375 -5.15515625 -32.30859375 -5.66015625 C-31.64859375 -3.68015625 -30.98859375 -1.70015625 -30.30859375 0.33984375 C-29.48359375 -0.44390625 -28.65859375 -1.22765625 -27.80859375 -2.03515625 C-18.88471359 -9.35357199 -8.30470277 -7.09107189 0 0 Z " fill="#1799F9" transform="translate(529.30859375,731.66015625)"/>
<path d="M0 0 C3.69702021 3.69702021 7.3125 7.93710898 7.3125 13.3125 C5.89853098 13.82007862 4.48118271 14.31824925 3.0625 14.8125 C2.27359375 15.0909375 1.4846875 15.369375 0.671875 15.65625 C-1.6875 16.3125 -1.6875 16.3125 -5.6875 16.3125 C-7.03081654 14.31919158 -8.36344012 12.31865134 -9.6875 10.3125 C-13.4001748 7.94051332 -16.61924356 8.17095663 -20.82421875 8.8203125 C-23.2535795 9.46203043 -24.82144236 10.6617567 -26.6875 12.3125 C-27.3475 12.3125 -28.0075 12.3125 -28.6875 12.3125 C-30.61015329 19.92366469 -31.72662818 26.84583828 -28.375 34.1875 C-25.93824036 37.25601214 -24.01278151 39.09326565 -20.06640625 39.74609375 C-14.06483117 39.79521406 -14.06483117 39.79521406 -8.625 37.5 C-6.55921988 35.2678862 -6.55921988 35.2678862 -4.6875 32.3125 C-3.24818883 32.76511358 -1.81111001 33.22482979 -0.375 33.6875 C0.42550781 33.94273437 1.22601562 34.19796875 2.05078125 34.4609375 C4.3125 35.3125 4.3125 35.3125 7.3125 37.3125 C3.37360044 44.33628992 -0.76073943 49.78195111 -8.578125 52.80859375 C-16.20980693 54.63171777 -24.71888927 53.98497083 -31.6875 50.3125 C-38.82001283 45.3922104 -42.99102676 39.90354818 -45 31.5 C-46.70239122 21.14508827 -44.342507 13.13889606 -38.6875 4.3125 C-28.9760324 -7.23688554 -12.27690141 -7.70875205 0 0 Z " fill="#1899FA" transform="translate(843.6875,730.6875)"/>
<path d="M0 0 C0.09038099 5.15171623 -0.15318867 9.91913204 -1 15 C3.62 14.67 8.24 14.34 13 14 C14.31164842 16.62329684 14.13262846 18.63698625 14.125 21.5625 C14.12886719 23.04943359 14.12886719 23.04943359 14.1328125 24.56640625 C14 27 14 27 13 28 C10.98405418 28.23427778 8.961526 28.41336124 6.9375 28.5625 C5.28041016 28.68818359 5.28041016 28.68818359 3.58984375 28.81640625 C2.73519531 28.87699219 1.88054688 28.93757812 1 29 C-1.11600125 43.14900685 -1.11600125 43.14900685 1 57 C4.85145043 58.92572521 9.80043252 58.04883218 14 58 C14 61.96 14 65.92 14 70 C7.72138448 73.13930776 1.71791073 72.75372228 -4.9375 70.6875 C-8.94500004 69.31287658 -11.14376204 67.69495002 -13.07348633 63.875 C-14.22351638 60.3064219 -14.25025642 56.99771664 -14.1953125 53.29296875 C-14.19106766 52.20487663 -14.19106766 52.20487663 -14.18673706 51.09480286 C-14.17559799 48.79219632 -14.15050566 46.48998773 -14.125 44.1875 C-14.11496206 42.62044835 -14.10583763 41.05339057 -14.09765625 39.48632812 C-14.0756793 35.65740022 -14.04119339 31.82876744 -14 28 C-16.64 28 -19.28 28 -22 28 C-22 23.71 -22 19.42 -22 15 C-19.36 15 -16.72 15 -14 15 C-14 11.37 -14 7.74 -14 4 C-12.0429132 3.32968281 -10.08428887 2.66385317 -8.125 2 C-7.03445313 1.62875 -5.94390625 1.2575 -4.8203125 0.875 C-2 0 -2 0 0 0 Z " fill="#189AFA" transform="translate(782,712)"/>
<path d="M0 0 C4.95 0 9.9 0 15 0 C15 18.48 15 36.96 15 56 C3 57 3 57 -1 55 C-0.34 55 0.32 55 1 55 C0.9278125 53.87851562 0.855625 52.75703125 0.78125 51.6015625 C-0.22322069 34.40380672 -0.09036249 17.21907511 0 0 Z " fill="#179AFA" transform="translate(459,727)"/>
<path d="M0 0 C0.33 0.66 0.66 1.32 1 2 C1.99 2 2.98 2 4 2 C4 2.99 4 3.98 4 5 C3.34 5 2.68 5 2 5 C2 4.34 2 3.68 2 3 C1.17209269 3.00607553 0.34418537 3.01215105 -0.50881004 3.01841068 C-20.62975338 3.16571918 -40.75072916 3.30746066 -60.8717556 3.4429636 C-70.60202532 3.50862612 -80.33227496 3.57619067 -90.0625 3.64819336 C-98.54081565 3.71092726 -107.01914724 3.77013278 -115.49751723 3.82505554 C-119.98903397 3.85427596 -124.48052243 3.88529421 -128.97199631 3.92053413 C-133.19569428 3.95361744 -137.41939722 3.98199874 -141.64315224 4.00670624 C-143.19682978 4.01663594 -144.75049724 4.02831314 -146.30414772 4.04183006 C-148.41853591 4.05996925 -150.53286988 4.07193234 -152.64730835 4.08229065 C-153.83273413 4.09058679 -155.0181599 4.09888292 -156.23950768 4.10743046 C-159 4 -159 4 -161 3 C-161 2.34 -161 1.68 -161 1 C-107.87 0.67 -54.74 0.34 0 0 Z " fill="#2DC5B0" transform="translate(306,691)"/>
<path d="M0 0 C3.41639845 1.9739191 4.72268412 3.18538459 6 6.9375 C6 10.65156631 5.36879593 12.15744489 3 15 C0.09053057 16.7299548 -1.6749642 17.00663338 -5.0625 16.9375 C-8.88075115 15.71890921 -10.09055208 14.51338418 -12 11 C-12.07517661 6.7149334 -11.69099731 4.76996843 -8.8125 1.5625 C-5.45611204 -0.30215998 -3.7822566 -0.6303761 0 0 Z " fill="#1A99F4" transform="translate(470,705)"/>
<path d="M0 0 C0.33 0 0.66 0 1 0 C1 4.95 1 9.9 1 15 C-8.88582276 15.02283181 -18.77162726 15.04107448 -28.6574707 15.05181217 C-33.25066122 15.05697253 -37.84383235 15.06394123 -42.43701172 15.07543945 C-62.31723666 15.12394326 -82.1440832 15.12898706 -102 14 C-102 13.67 -102 13.34 -102 13 C-89.40464927 12.84629257 -76.80924692 12.69811083 -64.21374798 12.5570364 C-58.36552553 12.49135927 -52.51733833 12.4237594 -46.66918945 12.35180664 C-41.0282666 12.28247355 -35.3873071 12.21813715 -29.74628639 12.15730476 C-27.59123467 12.13317894 -25.43620254 12.10723486 -23.28119469 12.07946587 C-20.26911864 12.04095963 -17.25703857 12.00884566 -14.24487305 11.97827148 C-12.90051933 11.95885246 -12.90051933 11.95885246 -11.52900696 11.93904114 C-10.29856155 11.9284819 -10.29856155 11.9284819 -9.04325867 11.91770935 C-8.33071269 11.90941321 -7.61816671 11.90111708 -6.88402843 11.89256954 C-5 12 -5 12 -2 13 C-1.34 8.71 -0.68 4.42 0 0 Z " fill="#1CBDC3" transform="translate(310,768)"/>
<path d="M0 0 C2.029668 3.044502 2.24856301 3.60276328 2.22705078 7.01245117 C2.22689972 7.81305466 2.22674866 8.61365814 2.22659302 9.43852234 C2.21627045 10.29798965 2.20594788 11.15745697 2.1953125 12.04296875 C2.1924826 12.9265657 2.18965271 13.81016266 2.18673706 14.72053528 C2.17554097 17.54299454 2.15043751 20.36513662 2.125 23.1875 C2.11496946 25.10090688 2.10584374 27.01431873 2.09765625 28.92773438 C2.07560351 33.61861182 2.04107762 38.30925213 2 43 C1.01 43 0.02 43 -1 43 C-1.02464574 37.03686834 -1.042834 31.07376605 -1.05493164 25.1105957 C-1.05997278 23.08031702 -1.06680557 21.05004198 -1.07543945 19.01977539 C-1.08751467 16.10822653 -1.09323034 13.1967255 -1.09765625 10.28515625 C-1.10281754 9.3716188 -1.10797882 8.45808136 -1.11329651 7.51686096 C-1.11349168 5.34424573 -1.06211805 3.17172704 -1 1 C-0.67 0.67 -0.34 0.34 0 0 Z " fill="#16B9D1" transform="translate(352,773)"/>
<path d="M0 0 C1.39456452 0.00667256 2.78911118 0.01863093 4.18359375 0.03515625 C4.89451172 0.03966797 5.60542969 0.04417969 6.33789062 0.04882812 C8.09899388 0.06064761 9.86005411 0.07858362 11.62109375 0.09765625 C10.96109375 3.06765625 10.30109375 6.03765625 9.62109375 9.09765625 C9.29109375 9.09765625 8.96109375 9.09765625 8.62109375 9.09765625 C8.62109375 7.11765625 8.62109375 5.13765625 8.62109375 3.09765625 C4.99109375 3.09765625 1.36109375 3.09765625 -2.37890625 3.09765625 C-2.70890625 5.07765625 -3.03890625 7.05765625 -3.37890625 9.09765625 C-3.70890625 9.09765625 -4.03890625 9.09765625 -4.37890625 9.09765625 C-4.4765625 2.9453125 -4.4765625 2.9453125 -4.37890625 1.09765625 C-3.37890625 0.09765625 -3.37890625 0.09765625 0 0 Z " fill="#1E97EB" transform="translate(687.37890625,705.90234375)"/>
<path d="M0 0 C0.66 0.33 1.32 0.66 2 1 C2.33 6.94 2.66 12.88 3 19 C1.02 19.33 -0.96 19.66 -3 20 C-3 19.34 -3 18.68 -3 18 C-8.94 18 -14.88 18 -21 18 C-21 17.67 -21 17.34 -21 17 C-14.07 17 -7.14 17 0 17 C0 11.39 0 5.78 0 0 Z " fill="#2AC8BA" transform="translate(309,666)"/>
<path d="M0 0 C2.06403699 3.09605549 2.33112676 4.29410018 2.625 7.875 C2.73714844 9.13957031 2.73714844 9.13957031 2.8515625 10.4296875 C2.90054688 11.27789063 2.94953125 12.12609375 3 13 C3.06960938 13.88945313 3.13921875 14.77890625 3.2109375 15.6953125 C3.14132812 16.45585938 3.07171875 17.21640625 3 18 C2.01 18.66 1.02 19.32 0 20 C0 13.4 0 6.8 0 0 Z " fill="#19A9F9" transform="translate(905,741)"/>
<path d="M0 0 C0.66 0.99 1.32 1.98 2 3 C-1.1184325 4.0394775 -3.27475586 4.11494838 -6.54296875 4.09765625 C-7.61611328 4.09443359 -8.68925781 4.09121094 -9.79492188 4.08789062 C-10.91447266 4.07951172 -12.03402344 4.07113281 -13.1875 4.0625 C-14.31865234 4.05798828 -15.44980469 4.05347656 -16.61523438 4.04882812 C-19.41020927 4.03703498 -22.2050782 4.0205765 -25 4 C-25 3.34 -25 2.68 -25 2 C-16.75 2 -8.5 2 0 2 C0 1.34 0 0.68 0 0 Z " fill="#14A4BF" transform="translate(352,816)"/>
<path d="M0 0 C4.95 0 9.9 0 15 0 C15 0.66 15 1.32 15 2 C4.44191344 3.51708428 4.44191344 3.51708428 0 1 C0 0.67 0 0.34 0 0 Z " fill="#2192DE" transform="translate(595,706)"/>
<path d="M0 0 C2 2 2 2 2.22705078 3.97119141 C2.21657715 4.75671387 2.20610352 5.54223633 2.1953125 6.3515625 C2.18886719 7.20234375 2.18242187 8.053125 2.17578125 8.9296875 C2.15902344 9.81914063 2.14226562 10.70859375 2.125 11.625 C2.11597656 12.5221875 2.10695313 13.419375 2.09765625 14.34375 C2.0740497 16.56276586 2.0411231 18.78125077 2 21 C1.67 21 1.34 21 1 21 C0.63611825 17.87605066 0.28555397 14.75074918 -0.0625 11.625 C-0.16626953 10.73554687 -0.27003906 9.84609375 -0.37695312 8.9296875 C-0.47041016 8.07890625 -0.56386719 7.228125 -0.66015625 6.3515625 C-0.74918213 5.56604004 -0.83820801 4.78051758 -0.92993164 3.97119141 C-1 2 -1 2 0 0 Z " fill="#19BCCD" transform="translate(309,787)"/>
<path d="M0 0 C1.20628008 2.33214148 2.1654738 4.49642139 3 7 C2.34 7 1.68 7 1 7 C1 9.97 1 12.94 1 16 C0.67 16 0.34 16 0 16 C-1.32791716 10.68833136 -1.74706142 5.24118425 0 0 Z " fill="#2AC9B4" transform="translate(209,712)"/>
<path d="M0 0 C0.99 0.33 1.98 0.66 3 1 C2.67 4.3 2.34 7.6 2 11 C1.34 11 0.68 11 0 11 C0 7.37 0 3.74 0 0 Z " fill="#1ABFCB" transform="translate(296,797)"/>
<path d="M0 0 C-1.32 0.33 -2.64 0.66 -4 1 C-4 1.66 -4 2.32 -4 3 C-6.31 3 -8.62 3 -11 3 C-8.21756596 -1.17365106 -4.53441502 -0.22300402 0 0 Z " fill="#16C8CC" transform="translate(278,795)"/>
<path d="M0 0 C0.66 0 1.32 0 2 0 C3.125 6.75 3.125 6.75 2 9 C1.34 9 0.68 9 0 9 C0 6.03 0 3.06 0 0 Z " fill="#1FCAC8" transform="translate(344,704)"/>
<path d="M0 0 C0.66 0.33 1.32 0.66 2 1 C0.02 2.98 -1.96 4.96 -4 7 C-4.66 6.67 -5.32 6.34 -6 6 C-4 4 -2 2 0 0 Z " fill="#25CBBE" transform="translate(253,737)"/>
<path d="M0 0 C4 1 4 1 4 1 Z " fill="#00DFFF" transform="translate(826,724)"/>
<path d="M0 0 C3 1 3 1 3 1 Z " fill="#000000" transform="translate(924,1090)"/>
<path d="M0 0 C0.66 0 1.32 0 2 0 C1.67 0.66 1.34 1.32 1 2 C0.67 1.34 0.34 0.68 0 0 Z " fill="#1CE2B8" transform="translate(171,662)"/>
<path d="M0 0 C2 1 2 1 2 1 Z " fill="#000000" transform="translate(942,1119)"/>
<path d="M0 0 C2 1 2 1 2 1 Z " fill="#3F3F3F" transform="translate(1004,1090)"/>
<path d="M0 0 C2 1 2 1 2 1 Z " fill="#000000" transform="translate(956,1090)"/>
<path d="M0 0 C2 1 2 1 2 1 Z " fill="#000000" transform="translate(916,1090)"/>
<path d="" fill="#000000" transform="translate(0,0)"/>
<path d="M0 0 C2 1 2 1 2 1 Z " fill="#15E9E9" transform="translate(300,810)"/>
<path d="M0 0 C2 1 2 1 2 1 Z " fill="#00FFFF" transform="translate(169,799)"/>
<path d="M0 0 C2 1 2 1 2 1 Z " fill="#00FFFF" transform="translate(814,783)"/>
<path d="M0 0 C2 1 2 1 2 1 Z " fill="#15BFE9" transform="translate(678,782)"/>
<path d="" fill="#00FFFF" transform="translate(0,0)"/>
<path d="" fill="#00FFFF" transform="translate(0,0)"/>
<path d="" fill="#00BFFF" transform="translate(0,0)"/>
<path d="" fill="#00FFFF" transform="translate(0,0)"/>
<path d="" fill="#00FFFF" transform="translate(0,0)"/>
<path d="" fill="#00D4FF" transform="translate(0,0)"/>
<path d="" fill="#00D4FF" transform="translate(0,0)"/>
<path d="" fill="#00BFFF" transform="translate(0,0)"/>
<path d="M0 0 C2 1 2 1 2 1 Z " fill="#00FFFF" transform="translate(722,724)"/>
<path d="M0 0 C2 1 2 1 2 1 Z " fill="#2A94D4" transform="translate(776,712)"/>
<path d="" fill="#000000" transform="translate(0,0)"/>
<path d="" fill="#000000" transform="translate(0,0)"/>
<path d="" fill="#000000" transform="translate(0,0)"/>
<path d="" fill="#000000" transform="translate(0,0)"/>
<path d="" fill="#000000" transform="translate(0,0)"/>
<path d="" fill="#000000" transform="translate(0,0)"/>
<path d="" fill="#000000" transform="translate(0,0)"/>
<path d="" fill="#000000" transform="translate(0,0)"/>
<path d="" fill="#000000" transform="translate(0,0)"/>
<path d="" fill="#000000" transform="translate(0,0)"/>
<path d="" fill="#000000" transform="translate(0,0)"/>
<path d="" fill="#000000" transform="translate(0,0)"/>
<path d="" fill="#000000" transform="translate(0,0)"/>
<path d="" fill="#000000" transform="translate(0,0)"/>
<path d="" fill="#000000" transform="translate(0,0)"/>
<path d="" fill="#000000" transform="translate(0,0)"/>
<path d="" fill="#000000" transform="translate(0,0)"/>
<path d="" fill="#000000" transform="translate(0,0)"/>
<path d="" fill="#000000" transform="translate(0,0)"/>
<path d="" fill="#000000" transform="translate(0,0)"/>
<path d="" fill="#000000" transform="translate(0,0)"/>
<path d="" fill="#000000" transform="translate(0,0)"/>
<path d="" fill="#000000" transform="translate(0,0)"/>
<path d="" fill="#000000" transform="translate(0,0)"/>
<path d="" fill="#000000" transform="translate(0,0)"/>
<path d="" fill="#7F7F7F" transform="translate(0,0)"/>
<path d="" fill="#000000" transform="translate(0,0)"/>
<path d="" fill="#000000" transform="translate(0,0)"/>
<path d="" fill="#000000" transform="translate(0,0)"/>
<path d="" fill="#000000" transform="translate(0,0)"/>
<path d="" fill="#000000" transform="translate(0,0)"/>
<path d="" fill="#000000" transform="translate(0,0)"/>
<path d="" fill="#000000" transform="translate(0,0)"/>
<path d="" fill="#000000" transform="translate(0,0)"/>
<path d="" fill="#000000" transform="translate(0,0)"/>
<path d="" fill="#000000" transform="translate(0,0)"/>
<path d="" fill="#7F7F7F" transform="translate(0,0)"/>
<path d="" fill="#000000" transform="translate(0,0)"/>
<path d="" fill="#000000" transform="translate(0,0)"/>
<path d="" fill="#000000" transform="translate(0,0)"/>
<path d="" fill="#000000" transform="translate(0,0)"/>
<path d="" fill="#000000" transform="translate(0,0)"/>
<path d="" fill="#000000" transform="translate(0,0)"/>
<path d="" fill="#000000" transform="translate(0,0)"/>
<path d="" fill="#000000" transform="translate(0,0)"/>
<path d="" fill="#000000" transform="translate(0,0)"/>
<path d="" fill="#000000" transform="translate(0,0)"/>
<path d="" fill="#000000" transform="translate(0,0)"/>
<path d="" fill="#000000" transform="translate(0,0)"/>
<path d="" fill="#000000" transform="translate(0,0)"/>
<path d="" fill="#000000" transform="translate(0,0)"/>
<path d="" fill="#000000" transform="translate(0,0)"/>
<path d="" fill="#000000" transform="translate(0,0)"/>
<path d="" fill="#000000" transform="translate(0,0)"/>
<path d="" fill="#000000" transform="translate(0,0)"/>
<path d="" fill="#000000" transform="translate(0,0)"/>
<path d="" fill="#000000" transform="translate(0,0)"/>
<path d="" fill="#000000" transform="translate(0,0)"/>
<path d="" fill="#000000" transform="translate(0,0)"/>
<path d="" fill="#000000" transform="translate(0,0)"/>
<path d="" fill="#000000" transform="translate(0,0)"/>
<path d="" fill="#000000" transform="translate(0,0)"/>
<path d="" fill="#000000" transform="translate(0,0)"/>
<path d="" fill="#000000" transform="translate(0,0)"/>
<path d="" fill="#000000" transform="translate(0,0)"/>
<path d="" fill="#000000" transform="translate(0,0)"/>
<path d="" fill="#000000" transform="translate(0,0)"/>
<path d="" fill="#000000" transform="translate(0,0)"/>
<path d="" fill="#7F7F7F" transform="translate(0,0)"/>
<path d="" fill="#000000" transform="translate(0,0)"/>
<path d="" fill="#000000" transform="translate(0,0)"/>
<path d="" fill="#000000" transform="translate(0,0)"/>
<path d="" fill="#000000" transform="translate(0,0)"/>
<path d="" fill="#7F7F7F" transform="translate(0,0)"/>
<path d="" fill="#000000" transform="translate(0,0)"/>
<path d="" fill="#000000" transform="translate(0,0)"/>
<path d="" fill="#000000" transform="translate(0,0)"/>
<path d="" fill="#000000" transform="translate(0,0)"/>
<path d="" fill="#000000" transform="translate(0,0)"/>
<path d="" fill="#000000" transform="translate(0,0)"/>
<path d="" fill="#000000" transform="translate(0,0)"/>
<path d="" fill="#000000" transform="translate(0,0)"/>
<path d="" fill="#000000" transform="translate(0,0)"/>
<path d="" fill="#000000" transform="translate(0,0)"/>
<path d="" fill="#000000" transform="translate(0,0)"/>
<path d="" fill="#000000" transform="translate(0,0)"/>
<path d="" fill="#000000" transform="translate(0,0)"/>
<path d="" fill="#000000" transform="translate(0,0)"/>
<path d="" fill="#7F7F7F" transform="translate(0,0)"/>
<path d="" fill="#000000" transform="translate(0,0)"/>
<path d="" fill="#7F7F7F" transform="translate(0,0)"/>
<path d="" fill="#000000" transform="translate(0,0)"/>
<path d="" fill="#000000" transform="translate(0,0)"/>
<path d="" fill="#000000" transform="translate(0,0)"/>
<path d="" fill="#000000" transform="translate(0,0)"/>
<path d="" fill="#000000" transform="translate(0,0)"/>
<path d="" fill="#000000" transform="translate(0,0)"/>
<path d="" fill="#000000" transform="translate(0,0)"/>
<path d="" fill="#000000" transform="translate(0,0)"/>
<path d="" fill="#000000" transform="translate(0,0)"/>
<path d="" fill="#000000" transform="translate(0,0)"/>
<path d="" fill="#000000" transform="translate(0,0)"/>
<path d="" fill="#000000" transform="translate(0,0)"/>
<path d="" fill="#000000" transform="translate(0,0)"/>
<path d="" fill="#000000" transform="translate(0,0)"/>
<path d="" fill="#000000" transform="translate(0,0)"/>
<path d="" fill="#000000" transform="translate(0,0)"/>
<path d="" fill="#000000" transform="translate(0,0)"/>
<path d="" fill="#000000" transform="translate(0,0)"/>
<path d="" fill="#000000" transform="translate(0,0)"/>
<path d="" fill="#000000" transform="translate(0,0)"/>
<path d="" fill="#000000" transform="translate(0,0)"/>
<path d="" fill="#000000" transform="translate(0,0)"/>
<path d="" fill="#000000" transform="translate(0,0)"/>
<path d="" fill="#000000" transform="translate(0,0)"/>
<path d="" fill="#000000" transform="translate(0,0)"/>
<path d="" fill="#000000" transform="translate(0,0)"/>
<path d="" fill="#000000" transform="translate(0,0)"/>
<path d="" fill="#000000" transform="translate(0,0)"/>
<path d="" fill="#000000" transform="translate(0,0)"/>
<path d="" fill="#000000" transform="translate(0,0)"/>
<path d="" fill="#000000" transform="translate(0,0)"/>
<path d="" fill="#000000" transform="translate(0,0)"/>
<path d="" fill="#000000" transform="translate(0,0)"/>
<path d="" fill="#000000" transform="translate(0,0)"/>
<path d="" fill="#7F7F7F" transform="translate(0,0)"/>
<path d="" fill="#000000" transform="translate(0,0)"/>
<path d="" fill="#000000" transform="translate(0,0)"/>
<path d="" fill="#000000" transform="translate(0,0)"/>
<path d="" fill="#000000" transform="translate(0,0)"/>
<path d="" fill="#000000" transform="translate(0,0)"/>
<path d="" fill="#000000" transform="translate(0,0)"/>
<path d="" fill="#000000" transform="translate(0,0)"/>
<path d="" fill="#000000" transform="translate(0,0)"/>
<path d="" fill="#000000" transform="translate(0,0)"/>
<path d="" fill="#000000" transform="translate(0,0)"/>
<path d="" fill="#000000" transform="translate(0,0)"/>
<path d="" fill="#000000" transform="translate(0,0)"/>
<path d="" fill="#000000" transform="translate(0,0)"/>
<path d="" fill="#000000" transform="translate(0,0)"/>
<path d="" fill="#000000" transform="translate(0,0)"/>
<path d="" fill="#000000" transform="translate(0,0)"/>
<path d="" fill="#7F7F7F" transform="translate(0,0)"/>
<path d="" fill="#000000" transform="translate(0,0)"/>
<path d="" fill="#000000" transform="translate(0,0)"/>
<path d="" fill="#000000" transform="translate(0,0)"/>
<path d="" fill="#7F7F7F" transform="translate(0,0)"/>
<path d="" fill="#000000" transform="translate(0,0)"/>
<path d="" fill="#7F7F7F" transform="translate(0,0)"/>
<path d="" fill="#7F7F7F" transform="translate(0,0)"/>
<path d="" fill="#7F7F7F" transform="translate(0,0)"/>
<path d="" fill="#7F7F7F" transform="translate(0,0)"/>
<path d="" fill="#000000" transform="translate(0,0)"/>
<path d="" fill="#7F7F7F" transform="translate(0,0)"/>
<path d="" fill="#000000" transform="translate(0,0)"/>
<path d="" fill="#000000" transform="translate(0,0)"/>
<path d="" fill="#000000" transform="translate(0,0)"/>
<path d="" fill="#000000" transform="translate(0,0)"/>
<path d="" fill="#000000" transform="translate(0,0)"/>
<path d="" fill="#000000" transform="translate(0,0)"/>
<path d="" fill="#000000" transform="translate(0,0)"/>
<path d="" fill="#000000" transform="translate(0,0)"/>
<path d="" fill="#000000" transform="translate(0,0)"/>
<path d="" fill="#000000" transform="translate(0,0)"/>
<path d="" fill="#000000" transform="translate(0,0)"/>
<path d="" fill="#000000" transform="translate(0,0)"/>
<path d="" fill="#000000" transform="translate(0,0)"/>
<path d="" fill="#000000" transform="translate(0,0)"/>
<path d="" fill="#000000" transform="translate(0,0)"/>
<path d="" fill="#000000" transform="translate(0,0)"/>
<path d="" fill="#000000" transform="translate(0,0)"/>
<path d="" fill="#000000" transform="translate(0,0)"/>
<path d="" fill="#000000" transform="translate(0,0)"/>
<path d="" fill="#000000" transform="translate(0,0)"/>
<path d="" fill="#000000" transform="translate(0,0)"/>
<path d="" fill="#000000" transform="translate(0,0)"/>
<path d="" fill="#000000" transform="translate(0,0)"/>
<path d="" fill="#000000" transform="translate(0,0)"/>
<path d="" fill="#000000" transform="translate(0,0)"/>
<path d="" fill="#000000" transform="translate(0,0)"/>
<path d="" fill="#000000" transform="translate(0,0)"/>
<path d="" fill="#000000" transform="translate(0,0)"/>
<path d="" fill="#000000" transform="translate(0,0)"/>
<path d="" fill="#000000" transform="translate(0,0)"/>
<path d="" fill="#000000" transform="translate(0,0)"/>
<path d="" fill="#000000" transform="translate(0,0)"/>
<path d="" fill="#000000" transform="translate(0,0)"/>
<path d="" fill="#000000" transform="translate(0,0)"/>
<path d="" fill="#000000" transform="translate(0,0)"/>
<path d="" fill="#000000" transform="translate(0,0)"/>
<path d="" fill="#000000" transform="translate(0,0)"/>
<path d="" fill="#000000" transform="translate(0,0)"/>
<path d="" fill="#000000" transform="translate(0,0)"/>
<path d="" fill="#000000" transform="translate(0,0)"/>
<path d="" fill="#000000" transform="translate(0,0)"/>
<path d="" fill="#7F7F7F" transform="translate(0,0)"/>
<path d="" fill="#000000" transform="translate(0,0)"/>
<path d="" fill="#000000" transform="translate(0,0)"/>
<path d="" fill="#000000" transform="translate(0,0)"/>
<path d="" fill="#000000" transform="translate(0,0)"/>
<path d="" fill="#000000" transform="translate(0,0)"/>
<path d="" fill="#000000" transform="translate(0,0)"/>
<path d="" fill="#000000" transform="translate(0,0)"/>
<path d="" fill="#000000" transform="translate(0,0)"/>
<path d="" fill="#000000" transform="translate(0,0)"/>
<path d="" fill="#000000" transform="translate(0,0)"/>
<path d="" fill="#000000" transform="translate(0,0)"/>
<path d="" fill="#000000" transform="translate(0,0)"/>
<path d="" fill="#000000" transform="translate(0,0)"/>
<path d="" fill="#000000" transform="translate(0,0)"/>
<path d="" fill="#000000" transform="translate(0,0)"/>
<path d="" fill="#000000" transform="translate(0,0)"/>
<path d="" fill="#000000" transform="translate(0,0)"/>
<path d="" fill="#000000" transform="translate(0,0)"/>
<path d="" fill="#000000" transform="translate(0,0)"/>
<path d="" fill="#000000" transform="translate(0,0)"/>
<path d="" fill="#000000" transform="translate(0,0)"/>
<path d="" fill="#000000" transform="translate(0,0)"/>
<path d="" fill="#000000" transform="translate(0,0)"/>
<path d="" fill="#000000" transform="translate(0,0)"/>
<path d="" fill="#000000" transform="translate(0,0)"/>
<path d="" fill="#000000" transform="translate(0,0)"/>
<path d="" fill="#000000" transform="translate(0,0)"/>
<path d="" fill="#00FFFF" transform="translate(0,0)"/>
<path d="" fill="#000000" transform="translate(0,0)"/>
<path d="" fill="#00FFFF" transform="translate(0,0)"/>
<path d="" fill="#00FFFF" transform="translate(0,0)"/>
<path d="" fill="#3FBFBF" transform="translate(0,0)"/>
<path d="" fill="#00AAAA" transform="translate(0,0)"/>
<path d="" fill="#00FFFF" transform="translate(0,0)"/>
<path d="" fill="#007F7F" transform="translate(0,0)"/>
<path d="" fill="#00FFFF" transform="translate(0,0)"/>
<path d="" fill="#00FFFF" transform="translate(0,0)"/>
<path d="" fill="#00FFFF" transform="translate(0,0)"/>
<path d="" fill="#55AAFF" transform="translate(0,0)"/>
<path d="" fill="#00FFFF" transform="translate(0,0)"/>
<path d="" fill="#007FFF" transform="translate(0,0)"/>
<path d="" fill="#00FFFF" transform="translate(0,0)"/>
<path d="" fill="#00FFFF" transform="translate(0,0)"/>
<path d="" fill="#00FFFF" transform="translate(0,0)"/>
<path d="" fill="#007FFF" transform="translate(0,0)"/>
<path d="" fill="#00FFFF" transform="translate(0,0)"/>
<path d="" fill="#00FFFF" transform="translate(0,0)"/>
<path d="" fill="#007FFF" transform="translate(0,0)"/>
<path d="" fill="#00FFFF" transform="translate(0,0)"/>
<path d="" fill="#55AAFF" transform="translate(0,0)"/>
<path d="" fill="#00FFFF" transform="translate(0,0)"/>
<path d="" fill="#5555AA" transform="translate(0,0)"/>
<path d="" fill="#00FFFF" transform="translate(0,0)"/>
<path d="" fill="#00FFFF" transform="translate(0,0)"/>
<path d="" fill="#00FFFF" transform="translate(0,0)"/>
<path d="" fill="#007FFF" transform="translate(0,0)"/>
<path d="" fill="#00FFFF" transform="translate(0,0)"/>
<path d="" fill="#00FFFF" transform="translate(0,0)"/>
<path d="" fill="#00FFFF" transform="translate(0,0)"/>
<path d="" fill="#007FFF" transform="translate(0,0)"/>
<path d="" fill="#00FFFF" transform="translate(0,0)"/>
<path d="" fill="#00FFFF" transform="translate(0,0)"/>
<path d="" fill="#00FFFF" transform="translate(0,0)"/>
<path d="" fill="#00FFFF" transform="translate(0,0)"/>
<path d="" fill="#00FFFF" transform="translate(0,0)"/>
<path d="" fill="#00FFFF" transform="translate(0,0)"/>
<path d="" fill="#00FFFF" transform="translate(0,0)"/>
<path d="" fill="#007FFF" transform="translate(0,0)"/>
<path d="" fill="#00AAFF" transform="translate(0,0)"/>
<path d="" fill="#00FFFF" transform="translate(0,0)"/>
<path d="" fill="#00FFFF" transform="translate(0,0)"/>
<path d="" fill="#00FFFF" transform="translate(0,0)"/>
<path d="" fill="#00FFFF" transform="translate(0,0)"/>
<path d="" fill="#007FFF" transform="translate(0,0)"/>
<path d="" fill="#00FFFF" transform="translate(0,0)"/>
<path d="" fill="#007FFF" transform="translate(0,0)"/>
<path d="" fill="#00FFFF" transform="translate(0,0)"/>
<path d="" fill="#00FFFF" transform="translate(0,0)"/>
<path d="" fill="#00FFFF" transform="translate(0,0)"/>
<path d="" fill="#007FFF" transform="translate(0,0)"/>
<path d="" fill="#00AAFF" transform="translate(0,0)"/>
<path d="" fill="#007FFF" transform="translate(0,0)"/>
<path d="" fill="#00FFFF" transform="translate(0,0)"/>
<path d="" fill="#00FFFF" transform="translate(0,0)"/>
<path d="" fill="#00FFFF" transform="translate(0,0)"/>
<path d="" fill="#00FFFF" transform="translate(0,0)"/>
<path d="" fill="#00FFFF" transform="translate(0,0)"/>
<path d="" fill="#00FFFF" transform="translate(0,0)"/>
<path d="" fill="#00FFFF" transform="translate(0,0)"/>
<path d="" fill="#007FFF" transform="translate(0,0)"/>
<path d="" fill="#00FFFF" transform="translate(0,0)"/>
<path d="" fill="#00FFFF" transform="translate(0,0)"/>
<path d="" fill="#00FFFF" transform="translate(0,0)"/>
<path d="" fill="#00AAFF" transform="translate(0,0)"/>
<path d="" fill="#007FFF" transform="translate(0,0)"/>
<path d="" fill="#3F7FFF" transform="translate(0,0)"/>
<path d="" fill="#00FFFF" transform="translate(0,0)"/>
<path d="" fill="#00FFFF" transform="translate(0,0)"/>
<path d="" fill="#000000" transform="translate(0,0)"/>
<path d="" fill="#007FFF" transform="translate(0,0)"/>
<path d="" fill="#00FFFF" transform="translate(0,0)"/>
<path d="" fill="#00FFFF" transform="translate(0,0)"/>
<path d="" fill="#007FFF" transform="translate(0,0)"/>
<path d="" fill="#00FFFF" transform="translate(0,0)"/>
<path d="" fill="#3399CC" transform="translate(0,0)"/>
<path d="" fill="#00FFFF" transform="translate(0,0)"/>
<path d="" fill="#00FFFF" transform="translate(0,0)"/>
<path d="" fill="#00FFFF" transform="translate(0,0)"/>
<path d="" fill="#00FFFF" transform="translate(0,0)"/>
<path d="" fill="#007FFF" transform="translate(0,0)"/>
<path d="" fill="#00FFFF" transform="translate(0,0)"/>
<path d="" fill="#00FFFF" transform="translate(0,0)"/>
<path d="" fill="#00FFFF" transform="translate(0,0)"/>
<path d="" fill="#00FFFF" transform="translate(0,0)"/>
<path d="" fill="#3F7FFF" transform="translate(0,0)"/>
<path d="" fill="#00FFFF" transform="translate(0,0)"/>
<path d="" fill="#007FFF" transform="translate(0,0)"/>
<path d="" fill="#00FFFF" transform="translate(0,0)"/>
<path d="" fill="#007FFF" transform="translate(0,0)"/>
<path d="" fill="#00FFFF" transform="translate(0,0)"/>
<path d="" fill="#00FFFF" transform="translate(0,0)"/>
<path d="" fill="#00FFFF" transform="translate(0,0)"/>
<path d="" fill="#00FFFF" transform="translate(0,0)"/>
<path d="" fill="#00FFFF" transform="translate(0,0)"/>
<path d="" fill="#55AAFF" transform="translate(0,0)"/>
<path d="" fill="#00FFFF" transform="translate(0,0)"/>
<path d="" fill="#3399CC" transform="translate(0,0)"/>
<path d="" fill="#00FFFF" transform="translate(0,0)"/>
<path d="" fill="#00FFFF" transform="translate(0,0)"/>
<path d="" fill="#00FF7F" transform="translate(0,0)"/>
<path d="" fill="#33CC99" transform="translate(0,0)"/>
<path d="" fill="#00FFFF" transform="translate(0,0)"/>
<path d="" fill="#55AAAA" transform="translate(0,0)"/>
<path d="" fill="#00FFFF" transform="translate(0,0)"/>
<path d="" fill="#55AAAA" transform="translate(0,0)"/>
<path d="" fill="#3FBFBF" transform="translate(0,0)"/>
<path d="" fill="#000000" transform="translate(0,0)"/>
<path d="" fill="#000000" transform="translate(0,0)"/>
<path d="" fill="#000000" transform="translate(0,0)"/>
<path d="" fill="#000000" transform="translate(0,0)"/>
<path d="" fill="#000000" transform="translate(0,0)"/>
<path d="" fill="#000000" transform="translate(0,0)"/>
<path d="" fill="#007F7F" transform="translate(0,0)"/>
<path d="" fill="#000000" transform="translate(0,0)"/>
<path d="" fill="#000000" transform="translate(0,0)"/>
<path d="" fill="#000000" transform="translate(0,0)"/>
<path d="" fill="#000000" transform="translate(0,0)"/>
<path d="" fill="#000000" transform="translate(0,0)"/>
<path d="" fill="#000000" transform="translate(0,0)"/>
<path d="" fill="#000000" transform="translate(0,0)"/>
<path d="" fill="#000000" transform="translate(0,0)"/>
<path d="" fill="#000000" transform="translate(0,0)"/>
<path d="" fill="#000000" transform="translate(0,0)"/>
<path d="" fill="#000000" transform="translate(0,0)"/>
<path d="" fill="#000000" transform="translate(0,0)"/>
<path d="" fill="#000000" transform="translate(0,0)"/>
<path d="" fill="#000000" transform="translate(0,0)"/>
<path d="" fill="#000000" transform="translate(0,0)"/>
<path d="" fill="#000000" transform="translate(0,0)"/>
<path d="" fill="#000000" transform="translate(0,0)"/>
<path d="" fill="#000000" transform="translate(0,0)"/>
<path d="" fill="#000000" transform="translate(0,0)"/>
<path d="" fill="#000000" transform="translate(0,0)"/>
<path d="" fill="#000000" transform="translate(0,0)"/>
<path d="" fill="#000000" transform="translate(0,0)"/>
<path d="" fill="#000000" transform="translate(0,0)"/>
<path d="" fill="#000000" transform="translate(0,0)"/>
<path d="" fill="#000000" transform="translate(0,0)"/>
<path d="" fill="#000000" transform="translate(0,0)"/>
<path d="" fill="#000000" transform="translate(0,0)"/>
<path d="" fill="#000000" transform="translate(0,0)"/>
<path d="" fill="#000000" transform="translate(0,0)"/>
<path d="" fill="#000000" transform="translate(0,0)"/>
<path d="" fill="#000000" transform="translate(0,0)"/>
<path d="" fill="#000000" transform="translate(0,0)"/>
<path d="" fill="#000000" transform="translate(0,0)"/>
<path d="" fill="#000000" transform="translate(0,0)"/>
<path d="" fill="#007F00" transform="translate(0,0)"/>
<path d="" fill="#000000" transform="translate(0,0)"/>
<path d="" fill="#000000" transform="translate(0,0)"/>
<path d="" fill="#000000" transform="translate(0,0)"/>
<path d="" fill="#000000" transform="translate(0,0)"/>
<path d="" fill="#000000" transform="translate(0,0)"/>
<path d="" fill="#000000" transform="translate(0,0)"/>
<path d="" fill="#000000" transform="translate(0,0)"/>
<path d="" fill="#000000" transform="translate(0,0)"/>
<path d="" fill="#000000" transform="translate(0,0)"/>
<path d="" fill="#000000" transform="translate(0,0)"/>
<path d="" fill="#000000" transform="translate(0,0)"/>
<path d="" fill="#000000" transform="translate(0,0)"/>
<path d="" fill="#000000" transform="translate(0,0)"/>
<path d="" fill="#000000" transform="translate(0,0)"/>
<path d="" fill="#000000" transform="translate(0,0)"/>
<path d="" fill="#000000" transform="translate(0,0)"/>
<path d="" fill="#000000" transform="translate(0,0)"/>
<path d="" fill="#000000" transform="translate(0,0)"/>
<path d="" fill="#000000" transform="translate(0,0)"/>
<path d="" fill="#000000" transform="translate(0,0)"/>
<path d="" fill="#000000" transform="translate(0,0)"/>
<path d="" fill="#000000" transform="translate(0,0)"/>
<path d="" fill="#000000" transform="translate(0,0)"/>
<path d="" fill="#000000" transform="translate(0,0)"/>
<path d="" fill="#000000" transform="translate(0,0)"/>
<path d="" fill="#000000" transform="translate(0,0)"/>
<path d="" fill="#7F7F7F" transform="translate(0,0)"/>
<path d="" fill="#7F7F7F" transform="translate(0,0)"/>
<path d="" fill="#000000" transform="translate(0,0)"/>
<path d="" fill="#555555" transform="translate(0,0)"/>
<path d="" fill="#000000" transform="translate(0,0)"/>
<path d="" fill="#000000" transform="translate(0,0)"/>
<path d="" fill="#7F7F7F" transform="translate(0,0)"/>
<path d="" fill="#000000" transform="translate(0,0)"/>
<path d="" fill="#7F7F7F" transform="translate(0,0)"/>
<path d="" fill="#000000" transform="translate(0,0)"/>
<path d="" fill="#555555" transform="translate(0,0)"/>
<path d="" fill="#7F7F7F" transform="translate(0,0)"/>
<path d="" fill="#7F7F7F" transform="translate(0,0)"/>
<path d="" fill="#555555" transform="translate(0,0)"/>
<path d="" fill="#7F7F7F" transform="translate(0,0)"/>
<path d="" fill="#555555" transform="translate(0,0)"/>
<path d="" fill="#555555" transform="translate(0,0)"/>
<path d="" fill="#555555" transform="translate(0,0)"/>
<path d="" fill="#7F7F7F" transform="translate(0,0)"/>
<path d="" fill="#7F7F7F" transform="translate(0,0)"/>
<path d="" fill="#555555" transform="translate(0,0)"/>
<path d="" fill="#7F7F7F" transform="translate(0,0)"/>
<path d="" fill="#7F7F7F" transform="translate(0,0)"/>
<path d="" fill="#7F7F7F" transform="translate(0,0)"/>
<path d="" fill="#555555" transform="translate(0,0)"/>
<path d="" fill="#000000" transform="translate(0,0)"/>
<path d="" fill="#555555" transform="translate(0,0)"/>
<path d="" fill="#000000" transform="translate(0,0)"/>
<path d="" fill="#7F7F7F" transform="translate(0,0)"/>
<path d="" fill="#7F7F7F" transform="translate(0,0)"/>
<path d="" fill="#7F7F7F" transform="translate(0,0)"/>
<path d="" fill="#000000" transform="translate(0,0)"/>
<path d="" fill="#7F7F7F" transform="translate(0,0)"/>
<path d="" fill="#000000" transform="translate(0,0)"/>
<path d="" fill="#000000" transform="translate(0,0)"/>
<path d="" fill="#7F7F7F" transform="translate(0,0)"/>
<path d="" fill="#7F7F7F" transform="translate(0,0)"/>
<path d="" fill="#7F7F7F" transform="translate(0,0)"/>
<path d="" fill="#000000" transform="translate(0,0)"/>
<path d="" fill="#7F7F7F" transform="translate(0,0)"/>
<path d="" fill="#7F7F7F" transform="translate(0,0)"/>
<path d="" fill="#7F7F7F" transform="translate(0,0)"/>
<path d="" fill="#000000" transform="translate(0,0)"/>
<path d="" fill="#000000" transform="translate(0,0)"/>
<path d="" fill="#7F7F7F" transform="translate(0,0)"/>
<path d="" fill="#7F7F7F" transform="translate(0,0)"/>
<path d="" fill="#7F7F7F" transform="translate(0,0)"/>
<path d="" fill="#7F7F7F" transform="translate(0,0)"/>
<path d="" fill="#7F7F7F" transform="translate(0,0)"/>
<path d="" fill="#000000" transform="translate(0,0)"/>
<path d="" fill="#000000" transform="translate(0,0)"/>
<path d="" fill="#7F7F7F" transform="translate(0,0)"/>
<path d="" fill="#7F7F7F" transform="translate(0,0)"/>
<path d="" fill="#7F7F7F" transform="translate(0,0)"/>
<path d="" fill="#555555" transform="translate(0,0)"/>
<path d="" fill="#000000" transform="translate(0,0)"/>
<path d="" fill="#000000" transform="translate(0,0)"/>
<path d="" fill="#7F7F7F" transform="translate(0,0)"/>
<path d="" fill="#7F7F00" transform="translate(0,0)"/>
<path d="" fill="#000000" transform="translate(0,0)"/>
<path d="" fill="#7F7F00" transform="translate(0,0)"/>
<path d="" fill="#555555" transform="translate(0,0)"/>
<path d="" fill="#000000" transform="translate(0,0)"/>
<path d="" fill="#7F7F00" transform="translate(0,0)"/>
<path d="" fill="#7F7F7F" transform="translate(0,0)"/>
<path d="" fill="#7F7F00" transform="translate(0,0)"/>
<path d="" fill="#7F7F00" transform="translate(0,0)"/>
<path d="" fill="#000000" transform="translate(0,0)"/>
<path d="" fill="#000000" transform="translate(0,0)"/>
<path d="" fill="#000000" transform="translate(0,0)"/>
<path d="" fill="#7F7F00" transform="translate(0,0)"/>
<path d="" fill="#000000" transform="translate(0,0)"/>
<path d="" fill="#7F7F00" transform="translate(0,0)"/>
<path d="" fill="#000000" transform="translate(0,0)"/>
<path d="" fill="#7F7F00" transform="translate(0,0)"/>
<path d="" fill="#7F7F00" transform="translate(0,0)"/>
<path d="" fill="#007F00" transform="translate(0,0)"/>
<path d="" fill="#7F7F00" transform="translate(0,0)"/>
<path d="" fill="#555555" transform="translate(0,0)"/>
<path d="" fill="#000000" transform="translate(0,0)"/>
<path d="" fill="#000000" transform="translate(0,0)"/>
<path d="" fill="#000000" transform="translate(0,0)"/>
<path d="" fill="#7F7F00" transform="translate(0,0)"/>
<path d="" fill="#007F00" transform="translate(0,0)"/>
<path d="" fill="#000000" transform="translate(0,0)"/>
<path d="" fill="#007F00" transform="translate(0,0)"/>
<path d="" fill="#000000" transform="translate(0,0)"/>
<path d="" fill="#555555" transform="translate(0,0)"/>
<path d="" fill="#007F00" transform="translate(0,0)"/>
<path d="" fill="#007F00" transform="translate(0,0)"/>
<path d="" fill="#007F00" transform="translate(0,0)"/>
<path d="" fill="#007F00" transform="translate(0,0)"/>
<path d="" fill="#007F00" transform="translate(0,0)"/>
<path d="" fill="#007F00" transform="translate(0,0)"/>
<path d="" fill="#007F00" transform="translate(0,0)"/>
<path d="" fill="#007F00" transform="translate(0,0)"/>
<path d="" fill="#000000" transform="translate(0,0)"/>
<path d="" fill="#555555" transform="translate(0,0)"/>
<path d="" fill="#555555" transform="translate(0,0)"/>
<path d="" fill="#000000" transform="translate(0,0)"/>
<path d="" fill="#7F7F00" transform="translate(0,0)"/>
<path d="" fill="#000000" transform="translate(0,0)"/>
<path d="" fill="#7F7F00" transform="translate(0,0)"/>
<path d="" fill="#555555" transform="translate(0,0)"/>
<path d="" fill="#000000" transform="translate(0,0)"/>
<path d="" fill="#000000" transform="translate(0,0)"/>
<path d="" fill="#7F7F7F" transform="translate(0,0)"/>
<path d="" fill="#7F7F7F" transform="translate(0,0)"/>
<path d="" fill="#000000" transform="translate(0,0)"/>
<path d="" fill="#7F7F7F" transform="translate(0,0)"/>
<path d="" fill="#7F7F7F" transform="translate(0,0)"/>
<path d="" fill="#000000" transform="translate(0,0)"/>
<path d="" fill="#000000" transform="translate(0,0)"/>
<path d="" fill="#7F7F7F" transform="translate(0,0)"/>
<path d="" fill="#7F7F7F" transform="translate(0,0)"/>
<path d="" fill="#000000" transform="translate(0,0)"/>
<path d="" fill="#000000" transform="translate(0,0)"/>
<path d="" fill="#000000" transform="translate(0,0)"/>
<path d="" fill="#000000" transform="translate(0,0)"/>
<path d="" fill="#7F7F7F" transform="translate(0,0)"/>
<path d="" fill="#7F7F7F" transform="translate(0,0)"/>
<path d="" fill="#7F7F7F" transform="translate(0,0)"/>
<path d="" fill="#7F7F7F" transform="translate(0,0)"/>
<path d="" fill="#7F7F7F" transform="translate(0,0)"/>
<path d="" fill="#000000" transform="translate(0,0)"/>
<path d="" fill="#000000" transform="translate(0,0)"/>
<path d="" fill="#000000" transform="translate(0,0)"/>
<path d="" fill="#000000" transform="translate(0,0)"/>
<path d="" fill="#000000" transform="translate(0,0)"/>
<path d="" fill="#000000" transform="translate(0,0)"/>
<path d="" fill="#000000" transform="translate(0,0)"/>
<path d="" fill="#000000" transform="translate(0,0)"/>
<path d="" fill="#7F7F7F" transform="translate(0,0)"/>
<path d="" fill="#000000" transform="translate(0,0)"/>
<path d="" fill="#000000" transform="translate(0,0)"/>
<path d="" fill="#000000" transform="translate(0,0)"/>
<path d="" fill="#000000" transform="translate(0,0)"/>
<path d="" fill="#000000" transform="translate(0,0)"/>
<path d="" fill="#000000" transform="translate(0,0)"/>
<path d="" fill="#000000" transform="translate(0,0)"/>
<path d="" fill="#000000" transform="translate(0,0)"/>
<path d="" fill="#000000" transform="translate(0,0)"/>
<path d="" fill="#000000" transform="translate(0,0)"/>
<path d="" fill="#000000" transform="translate(0,0)"/>
<path d="" fill="#000000" transform="translate(0,0)"/>
<path d="" fill="#000000" transform="translate(0,0)"/>
<path d="" fill="#000000" transform="translate(0,0)"/>
<path d="" fill="#000000" transform="translate(0,0)"/>
<path d="" fill="#000000" transform="translate(0,0)"/>
<path d="" fill="#7F7F7F" transform="translate(0,0)"/>
<path d="" fill="#000000" transform="translate(0,0)"/>
<path d="" fill="#000000" transform="translate(0,0)"/>
<path d="" fill="#7F7F7F" transform="translate(0,0)"/>
<path d="" fill="#7F7F7F" transform="translate(0,0)"/>
<path d="" fill="#000000" transform="translate(0,0)"/>
<path d="" fill="#000000" transform="translate(0,0)"/>
<path d="" fill="#000000" transform="translate(0,0)"/>
<path d="" fill="#000000" transform="translate(0,0)"/>
<path d="" fill="#000000" transform="translate(0,0)"/>
<path d="" fill="#000000" transform="translate(0,0)"/>
<path d="" fill="#7F7F7F" transform="translate(0,0)"/>
<path d="" fill="#000000" transform="translate(0,0)"/>
<path d="" fill="#000000" transform="translate(0,0)"/>
<path d="" fill="#000000" transform="translate(0,0)"/>
<path d="" fill="#000000" transform="translate(0,0)"/>
<path d="" fill="#000000" transform="translate(0,0)"/>
<path d="" fill="#000000" transform="translate(0,0)"/>
<path d="" fill="#000000" transform="translate(0,0)"/>
<path d="" fill="#000000" transform="translate(0,0)"/>
<path d="" fill="#000000" transform="translate(0,0)"/>
<path d="" fill="#000000" transform="translate(0,0)"/>
<path d="" fill="#000000" transform="translate(0,0)"/>
<path d="" fill="#000000" transform="translate(0,0)"/>
<path d="" fill="#000000" transform="translate(0,0)"/>
<path d="" fill="#000000" transform="translate(0,0)"/>
<path d="" fill="#000000" transform="translate(0,0)"/>
<path d="" fill="#000000" transform="translate(0,0)"/>
<path d="" fill="#000000" transform="translate(0,0)"/>
<path d="" fill="#000000" transform="translate(0,0)"/>
<path d="" fill="#000000" transform="translate(0,0)"/>
<path d="" fill="#000000" transform="translate(0,0)"/>
<path d="" fill="#000000" transform="translate(0,0)"/>
<path d="" fill="#000000" transform="translate(0,0)"/>
<path d="" fill="#000000" transform="translate(0,0)"/>
<path d="" fill="#000000" transform="translate(0,0)"/>
<path d="" fill="#000000" transform="translate(0,0)"/>
<path d="" fill="#000000" transform="translate(0,0)"/>
<path d="" fill="#000000" transform="translate(0,0)"/>
<path d="" fill="#000000" transform="translate(0,0)"/>
<path d="" fill="#000000" transform="translate(0,0)"/>
<path d="" fill="#000000" transform="translate(0,0)"/>
<path d="" fill="#000000" transform="translate(0,0)"/>
<path d="" fill="#000000" transform="translate(0,0)"/>
<path d="" fill="#000000" transform="translate(0,0)"/>
<path d="" fill="#000000" transform="translate(0,0)"/>
<path d="" fill="#000000" transform="translate(0,0)"/>
<path d="" fill="#000000" transform="translate(0,0)"/>
<path d="" fill="#000000" transform="translate(0,0)"/>
<path d="" fill="#000000" transform="translate(0,0)"/>
<path d="" fill="#000000" transform="translate(0,0)"/>
<path d="" fill="#000000" transform="translate(0,0)"/>
<path d="" fill="#000000" transform="translate(0,0)"/>
<path d="" fill="#000000" transform="translate(0,0)"/>
<path d="" fill="#000000" transform="translate(0,0)"/>
<path d="" fill="#000000" transform="translate(0,0)"/>
<path d="" fill="#000000" transform="translate(0,0)"/>
<path d="" fill="#000000" transform="translate(0,0)"/>
<path d="" fill="#000000" transform="translate(0,0)"/>
<path d="" fill="#000000" transform="translate(0,0)"/>
<path d="" fill="#000000" transform="translate(0,0)"/>
<path d="" fill="#000000" transform="translate(0,0)"/>
<path d="" fill="#000000" transform="translate(0,0)"/>
<path d="" fill="#000000" transform="translate(0,0)"/>
<path d="" fill="#000000" transform="translate(0,0)"/>
<path d="" fill="#000000" transform="translate(0,0)"/>
<path d="" fill="#000000" transform="translate(0,0)"/>
<path d="" fill="#000000" transform="translate(0,0)"/>
<path d="" fill="#000000" transform="translate(0,0)"/>
<path d="" fill="#000000" transform="translate(0,0)"/>
<path d="" fill="#000000" transform="translate(0,0)"/>
<path d="" fill="#000000" transform="translate(0,0)"/>
<path d="" fill="#000000" transform="translate(0,0)"/>
<path d="" fill="#000000" transform="translate(0,0)"/>
<path d="" fill="#000000" transform="translate(0,0)"/>
<path d="" fill="#000000" transform="translate(0,0)"/>
<path d="" fill="#000000" transform="translate(0,0)"/>
<path d="" fill="#000000" transform="translate(0,0)"/>
<path d="" fill="#000000" transform="translate(0,0)"/>
<path d="" fill="#000000" transform="translate(0,0)"/>
<path d="" fill="#000000" transform="translate(0,0)"/>
<path d="" fill="#000000" transform="translate(0,0)"/>
<path d="" fill="#000000" transform="translate(0,0)"/>
<path d="" fill="#000000" transform="translate(0,0)"/>
<path d="" fill="#000000" transform="translate(0,0)"/>
<path d="" fill="#000000" transform="translate(0,0)"/>
<path d="" fill="#000000" transform="translate(0,0)"/>
<path d="" fill="#000000" transform="translate(0,0)"/>
<path d="" fill="#000000" transform="translate(0,0)"/>
<path d="" fill="#000000" transform="translate(0,0)"/>
<path d="" fill="#000000" transform="translate(0,0)"/>
<path d="" fill="#000000" transform="translate(0,0)"/>
<path d="" fill="#000000" transform="translate(0,0)"/>
<path d="" fill="#000000" transform="translate(0,0)"/>
<path d="" fill="#000000" transform="translate(0,0)"/>
<path d="" fill="#000000" transform="translate(0,0)"/>
<path d="" fill="#000000" transform="translate(0,0)"/>
<path d="" fill="#000000" transform="translate(0,0)"/>
<path d="" fill="#000000" transform="translate(0,0)"/>
<path d="" fill="#000000" transform="translate(0,0)"/>
<path d="" fill="#000000" transform="translate(0,0)"/>
<path d="" fill="#000000" transform="translate(0,0)"/>
<path d="" fill="#000000" transform="translate(0,0)"/>
<path d="" fill="#000000" transform="translate(0,0)"/>
<path d="" fill="#000000" transform="translate(0,0)"/>
<path d="" fill="#000000" transform="translate(0,0)"/>
<path d="" fill="#7F7F7F" transform="translate(0,0)"/>
<path d="" fill="#000000" transform="translate(0,0)"/>
<path d="" fill="#000000" transform="translate(0,0)"/>
<path d="" fill="#000000" transform="translate(0,0)"/>
<path d="" fill="#000000" transform="translate(0,0)"/>
<path d="" fill="#000000" transform="translate(0,0)"/>
<path d="" fill="#000000" transform="translate(0,0)"/>
<path d="" fill="#000000" transform="translate(0,0)"/>
<path d="" fill="#000000" transform="translate(0,0)"/>
<path d="" fill="#000000" transform="translate(0,0)"/>
<path d="" fill="#000000" transform="translate(0,0)"/>
<path d="" fill="#000000" transform="translate(0,0)"/>
<path d="" fill="#000000" transform="translate(0,0)"/>
<path d="" fill="#000000" transform="translate(0,0)"/>
<path d="" fill="#7F7F7F" transform="translate(0,0)"/>
<path d="" fill="#000000" transform="translate(0,0)"/>
<path d="" fill="#000000" transform="translate(0,0)"/>
<path d="" fill="#000000" transform="translate(0,0)"/>
<path d="" fill="#000000" transform="translate(0,0)"/>
<path d="" fill="#000000" transform="translate(0,0)"/>
<path d="" fill="#000000" transform="translate(0,0)"/>
<path d="" fill="#000000" transform="translate(0,0)"/>
<path d="" fill="#000000" transform="translate(0,0)"/>
<path d="" fill="#000000" transform="translate(0,0)"/>
<path d="" fill="#7F7F7F" transform="translate(0,0)"/>
<path d="" fill="#000000" transform="translate(0,0)"/>
<path d="" fill="#000000" transform="translate(0,0)"/>
<path d="" fill="#000000" transform="translate(0,0)"/>
<path d="" fill="#7F7F7F" transform="translate(0,0)"/>
<path d="" fill="#7F7F7F" transform="translate(0,0)"/>
<path d="" fill="#000000" transform="translate(0,0)"/>
<path d="" fill="#000000" transform="translate(0,0)"/>
<path d="" fill="#000000" transform="translate(0,0)"/>
<path d="" fill="#000000" transform="translate(0,0)"/>
<path d="" fill="#000000" transform="translate(0,0)"/>
<path d="" fill="#000000" transform="translate(0,0)"/>
<path d="" fill="#000000" transform="translate(0,0)"/>
<path d="" fill="#000000" transform="translate(0,0)"/>
<path d="" fill="#000000" transform="translate(0,0)"/>
<path d="" fill="#000000" transform="translate(0,0)"/>
<path d="" fill="#000000" transform="translate(0,0)"/>
<path d="" fill="#000000" transform="translate(0,0)"/>
<path d="" fill="#000000" transform="translate(0,0)"/>
<path d="" fill="#000000" transform="translate(0,0)"/>
<path d="" fill="#000000" transform="translate(0,0)"/>
<path d="" fill="#000000" transform="translate(0,0)"/>
<path d="" fill="#000000" transform="translate(0,0)"/>
<path d="" fill="#000000" transform="translate(0,0)"/>
<path d="" fill="#000000" transform="translate(0,0)"/>
<path d="" fill="#000000" transform="translate(0,0)"/>
<path d="" fill="#000000" transform="translate(0,0)"/>
<path d="" fill="#000000" transform="translate(0,0)"/>
<path d="" fill="#000000" transform="translate(0,0)"/>
<path d="" fill="#000000" transform="translate(0,0)"/>
<path d="" fill="#000000" transform="translate(0,0)"/>
<path d="" fill="#000000" transform="translate(0,0)"/>
<path d="" fill="#000000" transform="translate(0,0)"/>
<path d="" fill="#000000" transform="translate(0,0)"/>
<path d="" fill="#000000" transform="translate(0,0)"/>
<path d="" fill="#7F7F7F" transform="translate(0,0)"/>
<path d="" fill="#000000" transform="translate(0,0)"/>
<path d="" fill="#000000" transform="translate(0,0)"/>
<path d="" fill="#000000" transform="translate(0,0)"/>
<path d="" fill="#000000" transform="translate(0,0)"/>
<path d="" fill="#000000" transform="translate(0,0)"/>
<path d="" fill="#000000" transform="translate(0,0)"/>
<path d="" fill="#000000" transform="translate(0,0)"/>
<path d="" fill="#000000" transform="translate(0,0)"/>
<path d="" fill="#000000" transform="translate(0,0)"/>
<path d="" fill="#000000" transform="translate(0,0)"/>
<path d="" fill="#000000" transform="translate(0,0)"/>
<path d="" fill="#000000" transform="translate(0,0)"/>
<path d="" fill="#000000" transform="translate(0,0)"/>
<path d="" fill="#000000" transform="translate(0,0)"/>
<path d="" fill="#000000" transform="translate(0,0)"/>
<path d="" fill="#000000" transform="translate(0,0)"/>
<path d="" fill="#000000" transform="translate(0,0)"/>
<path d="" fill="#000000" transform="translate(0,0)"/>
<path d="" fill="#000000" transform="translate(0,0)"/>
<path d="" fill="#000000" transform="translate(0,0)"/>
<path d="" fill="#000000" transform="translate(0,0)"/>
<path d="" fill="#000000" transform="translate(0,0)"/>
<path d="" fill="#000000" transform="translate(0,0)"/>
<path d="" fill="#000000" transform="translate(0,0)"/>
<path d="" fill="#000000" transform="translate(0,0)"/>
<path d="" fill="#000000" transform="translate(0,0)"/>
<path d="" fill="#000000" transform="translate(0,0)"/>
<path d="" fill="#000000" transform="translate(0,0)"/>
<path d="" fill="#000000" transform="translate(0,0)"/>
<path d="" fill="#000000" transform="translate(0,0)"/>
</svg>
