<?xml version="1.0" encoding="UTF-8"?>
<svg version="1.1" xmlns="http://www.w3.org/2000/svg" width="49" height="23">
<path d="M0 0 C16.17 0 32.34 0 49 0 C49 7.59 49 15.18 49 23 C32.83 23 16.66 23 0 23 C0 15.41 0 7.82 0 0 Z " fill="#F5BA0A" transform="translate(0,0)"/>
<path d="M0 0 C3.3 0 6.6 0 10 0 C10 4.29 10 8.58 10 13 C6.7 13 3.4 13 0 13 C0 8.71 0 4.42 0 0 Z " fill="#353C34" transform="translate(12,4)"/>
<path d="M0 0 C2.33294775 -0.04241723 4.66702567 -0.04092937 7 0 C8 1 8 1 8.1328125 3.46875 C8.13023438 4.4690625 8.12765625 5.469375 8.125 6.5 C8.12757812 7.5003125 8.13015625 8.500625 8.1328125 9.53125 C8 12 8 12 7 13 C4.66702567 13.04092937 2.33294775 13.04241723 0 13 C0 8.71 0 4.42 0 0 Z " fill="#4A4A2F" transform="translate(23,4)"/>
<path d="M0 0 C0.99 0 1.98 0 3 0 C3.33 0.66 3.66 1.32 4 2 C4.99 2 5.98 2 7 2 C7 5.63 7 9.26 7 13 C4.69 13 2.38 13 0 13 C0 8.71 0 4.42 0 0 Z " fill="#4A4A2F" transform="translate(33,4)"/>
<path d="M0 0 C0.99 0 1.98 0 3 0 C3 7.59 3 15.18 3 23 C1.68 22.67 0.36 22.34 -1 22 C-0.67 21.67 -0.34 21.34 0 21 C0.08685603 19.43827255 0.10702219 17.87270656 0.09765625 16.30859375 C0.09443359 15.36435547 0.09121094 14.42011719 0.08789062 13.44726562 C0.07951172 12.45404297 0.07113281 11.46082031 0.0625 10.4375 C0.05798828 9.44041016 0.05347656 8.44332031 0.04882812 7.41601562 C0.03700007 4.94395151 0.02051849 2.47200482 0 0 Z " fill="#F7F6F5" transform="translate(46,0)"/>
<path d="M0 0 C0.99 0 1.98 0 3 0 C3 4.29 3 8.58 3 13 C2.01 13 1.02 13 0 13 C0 8.71 0 4.42 0 0 Z " fill="#263237" transform="translate(33,4)"/>
<path d="M0 0 C0.99 0 1.98 0 3 0 C3 4.29 3 8.58 3 13 C2.01 13 1.02 13 0 13 C0 8.71 0 4.42 0 0 Z " fill="#3C4033" transform="translate(7,4)"/>
</svg>
