<?xml version="1.0" encoding="UTF-8"?>
<svg version="1.1" xmlns="http://www.w3.org/2000/svg" width="41" height="23">
<path d="M0 0 C13.53 0 27.06 0 41 0 C41 7.59 41 15.18 41 23 C27.47 23 13.94 23 0 23 C0 15.41 0 7.82 0 0 Z " fill="#4FE5FE" transform="translate(0,0)"/>
<path d="M0 0 C13.53 0 27.06 0 41 0 C41 7.59 41 15.18 41 23 C27.47 23 13.94 23 0 23 C0 22.34 0 21.68 0 21 C12.54 20.67 25.08 20.34 38 20 C38 14.06 38 8.12 38 2 C25.46 1.67 12.92 1.34 0 1 C0 0.67 0 0.34 0 0 Z " fill="#F6F6F7" transform="translate(0,0)"/>
<path d="M0 0 C2.85564037 1.69223133 3.37672693 3.93707952 4.1875 7 C4.7655138 9.48122996 5 11.42211206 5 14 C4.2265625 13.566875 4.2265625 13.566875 3.4375 13.125 C0.86227231 11.85634723 0.86227231 11.85634723 -2.625 11 C-6 10 -6 10 -8 8 C-8.36487512 5.15397406 -8.40199375 3.6135694 -6.8125 1.1875 C-4.35092224 -0.42525784 -2.88934264 -0.4334014 0 0 Z " fill="#1C9DE2" transform="translate(31,4)"/>
<path d="M0 0 C0 3 0 3 -1.53125 4.60546875 C-2.1809375 5.12753906 -2.830625 5.64960938 -3.5 6.1875 C-4.1496875 6.71730469 -4.799375 7.24710938 -5.46875 7.79296875 C-5.9740625 8.19128906 -6.479375 8.58960938 -7 9 C-8 8 -8 8 -8.25 5.625 C-8 3 -8 3 -6.8125 1.1875 C-4.44017475 -0.36678206 -2.77958655 -0.22537188 0 0 Z " fill="#24AAE8" transform="translate(31,4)"/>
<path d="M0 0 C0.33 0.99 0.66 1.98 1 3 C1.66 3 2.32 3 3 3 C3.66 4.32 4.32 5.64 5 7 C2 7 2 7 0 6 C0 5.34 0 4.68 0 4 C-0.99 3.67 -1.98 3.34 -3 3 C-2.01 2.01 -1.02 1.02 0 0 Z " fill="#1490DA" transform="translate(32,10)"/>
<path d="M0 0 C-0.763125 0.5775 -1.52625 1.155 -2.3125 1.75 C-4.66200917 3.71703093 -6.29323505 5.48476744 -8 8 C-8.36075949 3.55063291 -8.36075949 3.55063291 -6.8125 1.1875 C-4.44017475 -0.36678206 -2.77958655 -0.22537188 0 0 Z " fill="#31BBEE" transform="translate(31,4)"/>
</svg>
